<svg xmlns="http://www.w3.org/2000/svg" xmlns:xlink="http://www.w3.org/1999/xlink" contentStyleType="text/css" data-diagram-type="ACTIVITY" height="1771.875px" preserveAspectRatio="none" style="width:1316px;height:1771px;" version="1.1" viewBox="0 0 1316 1771" width="1316.6667px" zoomAndPan="magnify"><title>&lt;size:16&gt;&lt;b&gt;Algorithme de Dimensionnement Portique Bi-versant&lt;/b&gt;&lt;/size&gt;</title><defs><linearGradient id="gd7j8u8x6nry0" x1="50%" x2="50%" y1="0%" y2="100%"><stop offset="0%" stop-color="#FFFFFF"/><stop offset="100%" stop-color="#EEEEEE"/></linearGradient><linearGradient id="gd7j8u8x6nry1" x1="50%" x2="50%" y1="0%" y2="100%"><stop offset="0%" stop-color="#F18E3E"/><stop offset="100%" stop-color="#EC7211"/></linearGradient></defs><g><g class="title" data-source-line="3"><rect fill="url(#gd7j8u8x6nry0)" height="71.7611" rx="4.1667" ry="4.1667" style="stroke:#EEEEEE;stroke-width:1.0417;" width="519.7917" x="396.9096" y="15.625"/><text fill="#EC7211" font-family="Verdana" font-size="16.6667" font-weight="bold" lengthAdjust="spacing" textLength="498.9583" x="407.3263" y="41.512">Algorithme de Dimensionnement Portique Bi-versant</text><text fill="#EC7211" font-family="Verdana" font-size="14.5833" font-weight="bold" lengthAdjust="spacing" textLength="296.0103" x="508.8003" y="58.9793">EN 13031 (Annexe C) + EN 1991-1-3</text><text fill="#EC7211" font-family="Verdana" font-size="12.5" font-weight="bold" lengthAdjust="spacing" textLength="145.9839" x="583.8135" y="74.0214">(Actions de la neige)</text></g><ellipse cx="675.0346" cy="104.0527" fill="#0073BB" rx="10.4167" ry="10.4167" style="stroke:#222222;stroke-width:1.0417;"/><path d="M767.1875,124.8861 L767.1875,182.0638 L746.3542,186.2305 L767.1875,190.3971 L767.1875,247.5749 A0,0 0 0 0 767.1875,247.5749 L946.2626,247.5749 A0,0 0 0 0 946.2626,247.5749 L946.2626,135.3027 L935.8459,124.8861 L767.1875,124.8861 A0,0 0 0 0 767.1875,124.8861" fill="#0073BB" style="stroke:#005C96;stroke-width:1.0417;"/><path d="M935.8459,124.8861 L935.8459,135.3027 L946.2626,135.3027 L935.8459,124.8861" fill="#0073BB" style="stroke:#005C96;stroke-width:1.0417;"/><text fill="#FFFFFF" font-family="Verdana" font-size="12.5" font-weight="bold" lengthAdjust="spacing" textLength="143.3655" x="778.6458" y="146.9055">G&#233;om&#233;trie portique:</text><ellipse cx="784.375" cy="156.5918" fill="#FFFFFF" rx="2.6042" ry="2.6042"/><text fill="#FFFFFF" font-family="Verdana" font-size="12.5" lengthAdjust="spacing" textLength="134.2834" x="791.1458" y="161.4563">Angle pente alpha (&#176;)</text><text fill="#FFFFFF" font-family="Verdana" font-size="12.5" lengthAdjust="spacing" textLength="3.9734" x="778.6458" y="176.0071">&#160;</text><text fill="#FFFFFF" font-family="Verdana" font-size="12.5" font-weight="bold" lengthAdjust="spacing" textLength="89.5874" x="778.6458" y="190.5579">Localisation:</text><ellipse cx="784.375" cy="200.2441" fill="#FFFFFF" rx="2.6042" ry="2.6042"/><text fill="#FFFFFF" font-family="Verdana" font-size="12.5" lengthAdjust="spacing" textLength="101.3733" x="791.1458" y="205.1086">Zone climatique</text><ellipse cx="784.375" cy="214.7949" fill="#FFFFFF" rx="2.6042" ry="2.6042"/><text fill="#FFFFFF" font-family="Verdana" font-size="12.5" lengthAdjust="spacing" textLength="74.7498" x="791.1458" y="219.6594">Altitude (m)</text><ellipse cx="784.375" cy="229.3457" fill="#FFFFFF" rx="2.6042" ry="2.6042"/><text fill="#FFFFFF" font-family="Verdana" font-size="12.5" lengthAdjust="spacing" textLength="96.3196" x="791.1458" y="234.2102">Classe de serre</text><rect fill="url(#gd7j8u8x6nry1)" height="45.8008" rx="4.1667" ry="4.1667" style="stroke:#EC7211;stroke-width:0.5208;" width="142.6392" x="603.715" y="163.3301"/><text fill="#FFFFFF" font-family="Verdana" font-size="12.5" lengthAdjust="spacing" textLength="111.3892" x="619.34" y="190.5579">Donn&#233;es d'entr&#233;e</text><rect fill="none" height="1426.1536" rx="4.1667" ry="4.1667" style="stroke:#EC7211;stroke-width:1.5625;" width="1293.8192" x="11.4583" y="257.9915"/><path d="M169.0959,257.9915 L169.0959,275.6673 L158.6792,286.084 L11.4583,286.084" fill="none" style="stroke:#EC7211;stroke-width:1.5625;"/><text fill="#EC7211" font-family="Verdana" font-size="12.5" font-weight="bold" lengthAdjust="spacing" textLength="136.8042" x="19.7917" y="275.8443">CHARGES DE NEIGE</text><path d="M930.8014,309.0007 L930.8014,322.526 L909.9681,326.6927 L930.8014,330.8594 L930.8014,344.3848 A0,0 0 0 0 930.8014,344.3848 L1222.1751,344.3848 A0,0 0 0 0 1222.1751,344.3848 L1222.1751,319.4173 L1211.7584,309.0007 L930.8014,309.0007 A0,0 0 0 0 930.8014,309.0007" fill="#0073BB" style="stroke:#005C96;stroke-width:1.0417;"/><path d="M1211.7584,309.0007 L1211.7584,319.4173 L1222.1751,319.4173 L1211.7584,309.0007" fill="#0073BB" style="stroke:#005C96;stroke-width:1.0417;"/><text fill="#FFFFFF" font-family="Verdana" font-size="12.5" font-weight="bold" lengthAdjust="spacing" textLength="90.9119" x="942.2597" y="331.0201">EN 1991-1-3:</text><text fill="#FFFFFF" font-family="Verdana" font-size="12.5" lengthAdjust="spacing" textLength="3.9734" x="1033.1716" y="331.0201">&#160;</text><a href="https://lc.cx/f4S8BJ#page=7" target="_top" title="https://lc.cx/f4S8BJ#page=7" xlink:actuate="onRequest" xlink:href="https://lc.cx/f4S8BJ#page=7" xlink:show="new" xlink:title="https://lc.cx/f4S8BJ#page=7" xlink:type="simple"><text fill="#0000FF" font-family="Verdana" font-size="12.5" lengthAdjust="spacing" text-decoration="underline" textLength="164.1968" x="1037.145" y="331.0201">Tableau 3 du guide CTICM</text></a><rect fill="url(#gd7j8u8x6nry1)" height="45.8008" rx="4.1667" ry="4.1667" style="stroke:#EC7211;stroke-width:0.5208;" width="469.8669" x="440.1011" y="303.7923"/><text fill="#FFFFFF" font-family="Verdana" font-size="12.5" lengthAdjust="spacing" textLength="438.6169" x="455.7261" y="331.0201">D&#233;terminer la valeur caracteristique de la charge de neige au sol sk,0</text><path d="M868.1152,431.8685 L868.1152,445.3939 L847.2819,449.5605 L868.1152,453.7272 L868.1152,467.2526 A0,0 0 0 0 868.1152,467.2526 L1127.6896,467.2526 A0,0 0 0 0 1127.6896,467.2526 L1127.6896,442.2852 L1117.2729,431.8685 L868.1152,431.8685 A0,0 0 0 0 868.1152,431.8685" fill="#0073BB" style="stroke:#005C96;stroke-width:1.0417;"/><path d="M1117.2729,431.8685 L1117.2729,442.2852 L1127.6896,442.2852 L1117.2729,431.8685" fill="#0073BB" style="stroke:#005C96;stroke-width:1.0417;"/><text fill="#FFFFFF" font-family="Verdana" font-size="12.5" font-weight="bold" lengthAdjust="spacing" textLength="90.9119" x="879.5736" y="453.8879">EN 1991-1-3:</text><text fill="#FFFFFF" font-family="Verdana" font-size="12.5" lengthAdjust="spacing" textLength="3.9734" x="970.4854" y="453.8879">&#160;</text><a href="https://lc.cx/f4S8BJ#page=3" target="_top" title="https://lc.cx/f4S8BJ#page=3" xlink:actuate="onRequest" xlink:href="https://lc.cx/f4S8BJ#page=3" xlink:show="new" xlink:title="https://lc.cx/f4S8BJ#page=3" xlink:type="simple"><text fill="#0000FF" font-family="Verdana" font-size="12.5" lengthAdjust="spacing" text-decoration="underline" textLength="132.3975" x="974.4588" y="453.8879">&#167; 3.2 du guide CTICM</text></a><rect fill="url(#gd7j8u8x6nry1)" height="45.8008" rx="4.1667" ry="4.1667" style="stroke:#EC7211;stroke-width:0.5208;" width="344.4946" x="502.7873" y="426.6602"/><text fill="#FFFFFF" font-family="Verdana" font-size="12.5" lengthAdjust="spacing" textLength="313.2446" x="518.4123" y="453.8879">Calculer charges de neige au sol suivant l&#8217;altitude</text><polygon fill="#EEEEEE" points="618.6208,370.4264,731.4484,370.4264,743.9484,382.9264,731.4484,395.4264,618.6208,395.4264,606.1208,382.9264,618.6208,370.4264" style="stroke:#BEBEBE;stroke-width:0.5208;"/><text fill="#4E5D6C" font-family="Verdana" font-size="12.5" lengthAdjust="spacing" textLength="19.043" x="684.4096" y="412.2375">oui</text><text fill="#4E5D6C" font-family="Verdana" font-size="12.5" lengthAdjust="spacing" textLength="102.4109" x="623.8291" y="387.2538">altitude &gt; 200m</text><text fill="#4E5D6C" font-family="Verdana" font-size="12.5" lengthAdjust="spacing" textLength="23.4924" x="749.1567" y="374.7701">non</text><polygon fill="#EEEEEE" points="675.0346,493.2943,687.5346,505.7943,675.0346,518.2943,662.5346,505.7943,675.0346,493.2943" style="stroke:#BEBEBE;stroke-width:0.5208;"/><path d="M849.0906,544.3359 L849.0906,557.8613 L828.2572,562.028 L849.0906,566.1947 L849.0906,579.7201 A0,0 0 0 0 849.0906,579.7201 L1168.2475,579.7201 A0,0 0 0 0 1168.2475,579.7201 L1168.2475,554.7526 L1157.8308,544.3359 L849.0906,544.3359 A0,0 0 0 0 849.0906,544.3359" fill="#0073BB" style="stroke:#005C96;stroke-width:1.0417;"/><path d="M1157.8308,544.3359 L1157.8308,554.7526 L1168.2475,554.7526 L1157.8308,544.3359" fill="#0073BB" style="stroke:#005C96;stroke-width:1.0417;"/><text fill="#FFFFFF" font-family="Verdana" font-size="12.5" font-weight="bold" lengthAdjust="spacing" textLength="163.5681" x="860.5489" y="566.3554">NF EN 13031-1/NA2020</text><text fill="#FFFFFF" font-family="Verdana" font-size="12.5" lengthAdjust="spacing" textLength="3.9734" x="1024.117" y="566.3554">&#160;</text><a href="https://www.google.fr" target="_top" title="https://www.google.fr" xlink:actuate="onRequest" xlink:href="https://www.google.fr" xlink:show="new" xlink:title="https://www.google.fr" xlink:type="simple"><text fill="#0000FF" font-family="Verdana" font-size="12.5" lengthAdjust="spacing" text-decoration="underline" textLength="119.3237" x="1028.0904" y="566.3554">Clause 10.2.2.2 (2)</text></a><rect fill="url(#gd7j8u8x6nry1)" height="45.8008" rx="4.1667" ry="4.1667" style="stroke:#EC7211;stroke-width:0.5208;" width="306.4453" x="521.8119" y="539.1276"/><text fill="#FFFFFF" font-family="Verdana" font-size="12.5" lengthAdjust="spacing" textLength="275.1953" x="537.4369" y="566.3554">D&#233;terminer le coefficient d&#8217;ajustement fs(n)</text><path d="M826.6724,610.9701 L826.6724,624.4954 L805.839,628.6621 L826.6724,632.8288 L826.6724,646.3542 A0,0 0 0 0 826.6724,646.3542 L1103.2572,646.3542 A0,0 0 0 0 1103.2572,646.3542 L1103.2572,621.3867 L1092.8406,610.9701 L826.6724,610.9701 A0,0 0 0 0 826.6724,610.9701" fill="#0073BB" style="stroke:#005C96;stroke-width:1.0417;"/><path d="M1092.8406,610.9701 L1092.8406,621.3867 L1103.2572,621.3867 L1092.8406,610.9701" fill="#0073BB" style="stroke:#005C96;stroke-width:1.0417;"/><text fill="#FFFFFF" font-family="Verdana" font-size="12.5" lengthAdjust="spacing" textLength="244.2932" x="838.1307" y="632.9895">application du coefficient d'ajustement</text><rect fill="url(#gd7j8u8x6nry1)" height="45.8008" rx="4.1667" ry="4.1667" style="stroke:#EC7211;stroke-width:0.5208;" width="261.6089" x="544.2301" y="605.7617"/><text fill="#FFFFFF" font-family="Verdana" font-size="12.5" lengthAdjust="spacing" textLength="230.3589" x="559.8551" y="632.9895">Corriger la charge de neige au sol sk</text><path d="M868.631,677.6042 L868.631,691.1296 L847.7976,695.2962 L868.631,699.4629 L868.631,712.9883 A0,0 0 0 0 868.631,712.9883 L1097.2117,712.9883 A0,0 0 0 0 1097.2117,712.9883 L1097.2117,688.0208 L1086.795,677.6042 L868.631,677.6042 A0,0 0 0 0 868.631,677.6042" fill="#0073BB" style="stroke:#005C96;stroke-width:1.0417;"/><path d="M1086.795,677.6042 L1086.795,688.0208 L1097.2117,688.0208 L1086.795,677.6042" fill="#0073BB" style="stroke:#005C96;stroke-width:1.0417;"/><text fill="#FFFFFF" font-family="Verdana" font-size="12.5" font-weight="bold" lengthAdjust="spacing" textLength="120.5139" x="880.0893" y="699.6236">EN 13031-1:2019</text><text fill="#FFFFFF" font-family="Verdana" font-size="12.5" lengthAdjust="spacing" textLength="3.9734" x="1000.6032" y="699.6236">&#160;</text><a href="https://www.google.fr" target="_top" title="https://www.google.fr" xlink:actuate="onRequest" xlink:href="https://www.google.fr" xlink:show="new" xlink:title="https://www.google.fr" xlink:type="simple"><text fill="#0000FF" font-family="Verdana" font-size="12.5" lengthAdjust="spacing" text-decoration="underline" textLength="71.8018" x="1004.5766" y="699.6236">Annexe C.1</text></a><rect fill="url(#gd7j8u8x6nry1)" height="45.8008" rx="4.1667" ry="4.1667" style="stroke:#EC7211;stroke-width:0.5208;" width="345.5261" x="502.2715" y="672.3958"/><text fill="#FFFFFF" font-family="Verdana" font-size="12.5" lengthAdjust="spacing" textLength="314.2761" x="517.8965" y="699.6236">D&#233;finir les coefficients du mat&#233;riau de surface Cm</text><path d="M823.3398,744.2383 L823.3398,757.7637 L802.5065,761.9303 L823.3398,766.097 L823.3398,779.6224 A0,0 0 0 0 823.3398,779.6224 L1051.9206,779.6224 A0,0 0 0 0 1051.9206,779.6224 L1051.9206,754.6549 L1041.5039,744.2383 L823.3398,744.2383 A0,0 0 0 0 823.3398,744.2383" fill="#0073BB" style="stroke:#005C96;stroke-width:1.0417;"/><path d="M1041.5039,744.2383 L1041.5039,754.6549 L1051.9206,754.6549 L1041.5039,744.2383" fill="#0073BB" style="stroke:#005C96;stroke-width:1.0417;"/><text fill="#FFFFFF" font-family="Verdana" font-size="12.5" font-weight="bold" lengthAdjust="spacing" textLength="120.5139" x="834.7982" y="766.2577">EN 13031-1:2019</text><text fill="#FFFFFF" font-family="Verdana" font-size="12.5" lengthAdjust="spacing" textLength="3.9734" x="955.3121" y="766.2577">&#160;</text><a href="https://www.google.fr" target="_top" title="https://www.google.fr" xlink:actuate="onRequest" xlink:href="https://www.google.fr" xlink:show="new" xlink:title="https://www.google.fr" xlink:type="simple"><text fill="#0000FF" font-family="Verdana" font-size="12.5" lengthAdjust="spacing" text-decoration="underline" textLength="71.8018" x="959.2855" y="766.2577">Annexe C.2</text></a><rect fill="url(#gd7j8u8x6nry1)" height="45.8008" rx="4.1667" ry="4.1667" style="stroke:#EC7211;stroke-width:0.5208;" width="254.9438" x="547.5627" y="739.0299"/><text fill="#FFFFFF" font-family="Verdana" font-size="12.5" lengthAdjust="spacing" textLength="223.6938" x="563.1877" y="766.2577">Calculer le Coefficient thermique Ct</text><path d="M808.3527,810.8724 L808.3527,824.3978 L787.5193,828.5645 L808.3527,832.7311 L808.3527,846.2565 A0,0 0 0 0 808.3527,846.2565 L1036.9334,846.2565 A0,0 0 0 0 1036.9334,846.2565 L1036.9334,821.2891 L1026.5167,810.8724 L808.3527,810.8724 A0,0 0 0 0 808.3527,810.8724" fill="#0073BB" style="stroke:#005C96;stroke-width:1.0417;"/><path d="M1026.5167,810.8724 L1026.5167,821.2891 L1036.9334,821.2891 L1026.5167,810.8724" fill="#0073BB" style="stroke:#005C96;stroke-width:1.0417;"/><text fill="#FFFFFF" font-family="Verdana" font-size="12.5" font-weight="bold" lengthAdjust="spacing" textLength="120.5139" x="819.811" y="832.8918">EN 13031-1:2019</text><text fill="#FFFFFF" font-family="Verdana" font-size="12.5" lengthAdjust="spacing" textLength="3.9734" x="940.3249" y="832.8918">&#160;</text><a href="https://www.google.fr" target="_top" title="https://www.google.fr" xlink:actuate="onRequest" xlink:href="https://www.google.fr" xlink:show="new" xlink:title="https://www.google.fr" xlink:type="simple"><text fill="#0000FF" font-family="Verdana" font-size="12.5" lengthAdjust="spacing" text-decoration="underline" textLength="71.8018" x="944.2983" y="832.8918">Annexe C.3</text></a><rect fill="url(#gd7j8u8x6nry1)" height="45.8008" rx="4.1667" ry="4.1667" style="stroke:#EC7211;stroke-width:0.5208;" width="224.9695" x="562.5498" y="805.6641"/><text fill="#FFFFFF" font-family="Verdana" font-size="12.5" lengthAdjust="spacing" textLength="193.7195" x="578.1748" y="832.8918">D&#233;terminer coefficient forme &#956;</text><polygon fill="#EEEEEE" points="206.4448,872.2982,312.9613,872.2982,325.4613,884.7982,312.9613,897.2982,206.4448,897.2982,193.9448,884.7982,206.4448,872.2982" style="stroke:#BEBEBE;stroke-width:0.5208;"/><text fill="#4E5D6C" font-family="Verdana" font-size="12.5" lengthAdjust="spacing" textLength="88.1897" x="269.0781" y="914.1093">versants plats</text><text fill="#4E5D6C" font-family="Verdana" font-size="12.5" lengthAdjust="spacing" textLength="96.0999" x="211.6531" y="889.1256">Forme toiture ?</text><polygon fill="#EEEEEE" points="207.2596,936.5051,312.1465,936.5051,324.6465,949.0051,312.1465,961.5051,207.2596,961.5051,194.7596,949.0051,207.2596,936.5051" style="stroke:#BEBEBE;stroke-width:0.5208;"/><text fill="#4E5D6C" font-family="Verdana" font-size="12.5" lengthAdjust="spacing" textLength="94.4702" x="212.468" y="953.3325">cas de charge?</text><text fill="#4E5D6C" font-family="Verdana" font-size="12.5" lengthAdjust="spacing" textLength="131.5796" x="57.9717" y="940.8488">distribution uniforme</text><text fill="#4E5D6C" font-family="Verdana" font-size="12.5" lengthAdjust="spacing" textLength="159.0454" x="329.8548" y="940.8488">distribution non uniforme</text><path d="M203.7638,977.1301 L203.7638,990.6555 L182.9305,994.8222 L203.7638,998.9889 L203.7638,1012.5142 A0,0 0 0 0 203.7638,1012.5142 L317.629,1012.5142 A0,0 0 0 0 317.629,1012.5142 L317.629,987.5468 L307.2123,977.1301 L203.7638,977.1301 A0,0 0 0 0 203.7638,977.1301" fill="#0073BB" style="stroke:#005C96;stroke-width:1.0417;"/><path d="M307.2123,977.1301 L307.2123,987.5468 L317.629,987.5468 L307.2123,977.1301" fill="#0073BB" style="stroke:#005C96;stroke-width:1.0417;"/><a href="https://www.google.fr" target="_top" title="https://www.google.fr" xlink:actuate="onRequest" xlink:href="https://www.google.fr" xlink:show="new" xlink:title="https://www.google.fr" xlink:type="simple"><text fill="#0000FF" font-family="Verdana" font-size="12.5" lengthAdjust="spacing" text-decoration="underline" textLength="81.5735" x="215.2222" y="999.1496">section C.3.1</text></a><rect fill="url(#gd7j8u8x6nry1)" height="45.8008" rx="4.1667" ry="4.1667" style="stroke:#EC7211;stroke-width:0.5208;" width="158.9722" x="23.9583" y="971.9218"/><text fill="#FFFFFF" font-family="Verdana" font-size="12.5" lengthAdjust="spacing" textLength="123.7488" x="39.5833" y="999.1496">&#956; selon Tableau C.4</text><path d="M514.2944,977.1301 L514.2944,990.6555 L493.4611,994.8222 L514.2944,998.9889 L514.2944,1012.5142 A0,0 0 0 0 514.2944,1012.5142 L628.1596,1012.5142 A0,0 0 0 0 628.1596,1012.5142 L628.1596,987.5468 L617.7429,977.1301 L514.2944,977.1301 A0,0 0 0 0 514.2944,977.1301" fill="#0073BB" style="stroke:#005C96;stroke-width:1.0417;"/><path d="M617.7429,977.1301 L617.7429,987.5468 L628.1596,987.5468 L617.7429,977.1301" fill="#0073BB" style="stroke:#005C96;stroke-width:1.0417;"/><a href="https://www.google.fr" target="_top" title="https://www.google.fr" xlink:actuate="onRequest" xlink:href="https://www.google.fr" xlink:show="new" xlink:title="https://www.google.fr" xlink:type="simple"><text fill="#0000FF" font-family="Verdana" font-size="12.5" lengthAdjust="spacing" text-decoration="underline" textLength="81.5735" x="525.7528" y="999.1496">section C.3.2</text></a><rect fill="url(#gd7j8u8x6nry1)" height="45.8008" rx="4.1667" ry="4.1667" style="stroke:#EC7211;stroke-width:0.5208;" width="154.9988" x="338.4623" y="971.9218"/><text fill="#FFFFFF" font-family="Verdana" font-size="12.5" lengthAdjust="spacing" textLength="123.7488" x="354.0873" y="999.1496">&#956; selon Tableau C.5</text><polygon fill="#EEEEEE" points="259.7031,1034.3892,272.2031,1046.8892,259.7031,1059.3892,247.2031,1046.8892,259.7031,1034.3892" style="stroke:#BEBEBE;stroke-width:0.5208;"/><polygon fill="#EEEEEE" points="822.256,872.2982,988.886,872.2982,1001.386,884.7982,988.886,897.2982,822.256,897.2982,809.756,884.7982,822.256,872.2982" style="stroke:#BEBEBE;stroke-width:0.5208;"/><text fill="#4E5D6C" font-family="Verdana" font-size="12.5" lengthAdjust="spacing" textLength="19.043" x="914.946" y="914.1093">oui</text><text fill="#4E5D6C" font-family="Verdana" font-size="12.5" lengthAdjust="spacing" textLength="156.2134" x="827.4643" y="889.1256">serres &#224; toitures vo&#251;t&#233;es</text><rect fill="url(#gd7j8u8x6nry1)" height="45.8008" rx="4.1667" ry="4.1667" style="stroke:#EC7211;stroke-width:0.5208;" width="184.6191" x="813.2614" y="936.5051"/><text fill="#FFFFFF" font-family="Verdana" font-size="12.5" lengthAdjust="spacing" textLength="153.3691" x="828.8864" y="963.7329">&#956; selon forme la pente &#946;</text><polygon fill="#EEEEEE" points="853.1275,1018.7642,958.0144,1018.7642,970.5144,1031.2642,958.0144,1043.7642,853.1275,1043.7642,840.6275,1031.2642,853.1275,1018.7642" style="stroke:#BEBEBE;stroke-width:0.5208;"/><text fill="#4E5D6C" font-family="Verdana" font-size="12.5" lengthAdjust="spacing" textLength="94.4702" x="858.3359" y="1035.5916">cas de charge?</text><text fill="#4E5D6C" font-family="Verdana" font-size="12.5" lengthAdjust="spacing" textLength="131.5796" x="703.8396" y="1023.1079">distribution uniforme</text><text fill="#4E5D6C" font-family="Verdana" font-size="12.5" lengthAdjust="spacing" textLength="159.0454" x="975.7228" y="1023.1079">distribution non uniforme</text><path d="M849.6318,1059.3892 L849.6318,1072.9146 L828.7984,1077.0813 L849.6318,1081.248 L849.6318,1094.7734 A0,0 0 0 0 849.6318,1094.7734 L963.4969,1094.7734 A0,0 0 0 0 963.4969,1094.7734 L963.4969,1069.8059 L953.0802,1059.3892 L849.6318,1059.3892 A0,0 0 0 0 849.6318,1059.3892" fill="#0073BB" style="stroke:#005C96;stroke-width:1.0417;"/><path d="M953.0802,1059.3892 L953.0802,1069.8059 L963.4969,1069.8059 L953.0802,1059.3892" fill="#0073BB" style="stroke:#005C96;stroke-width:1.0417;"/><a href="https://www.google.fr" target="_top" title="https://www.google.fr" xlink:actuate="onRequest" xlink:href="https://www.google.fr" xlink:show="new" xlink:title="https://www.google.fr" xlink:type="simple"><text fill="#0000FF" font-family="Verdana" font-size="12.5" lengthAdjust="spacing" text-decoration="underline" textLength="81.5735" x="861.0901" y="1081.4087">section C.3.1</text></a><rect fill="url(#gd7j8u8x6nry1)" height="45.8008" rx="4.1667" ry="4.1667" style="stroke:#EC7211;stroke-width:0.5208;" width="158.9722" x="669.8263" y="1054.1809"/><text fill="#FFFFFF" font-family="Verdana" font-size="12.5" lengthAdjust="spacing" textLength="123.7488" x="685.4513" y="1081.4087">&#956; selon Tableau C.4</text><path d="M1160.1624,1059.3892 L1160.1624,1072.9146 L1139.329,1077.0813 L1160.1624,1081.248 L1160.1624,1094.7734 A0,0 0 0 0 1160.1624,1094.7734 L1274.0275,1094.7734 A0,0 0 0 0 1274.0275,1094.7734 L1274.0275,1069.8059 L1263.6108,1059.3892 L1160.1624,1059.3892 A0,0 0 0 0 1160.1624,1059.3892" fill="#0073BB" style="stroke:#005C96;stroke-width:1.0417;"/><path d="M1263.6108,1059.3892 L1263.6108,1069.8059 L1274.0275,1069.8059 L1263.6108,1059.3892" fill="#0073BB" style="stroke:#005C96;stroke-width:1.0417;"/><a href="https://www.google.fr" target="_top" title="https://www.google.fr" xlink:actuate="onRequest" xlink:href="https://www.google.fr" xlink:show="new" xlink:title="https://www.google.fr" xlink:type="simple"><text fill="#0000FF" font-family="Verdana" font-size="12.5" lengthAdjust="spacing" text-decoration="underline" textLength="81.5735" x="1171.6207" y="1081.4087">section C.3.3</text></a><rect fill="url(#gd7j8u8x6nry1)" height="45.8008" rx="4.1667" ry="4.1667" style="stroke:#EC7211;stroke-width:0.5208;" width="154.9988" x="984.3302" y="1054.1809"/><text fill="#FFFFFF" font-family="Verdana" font-size="12.5" lengthAdjust="spacing" textLength="123.7488" x="999.9552" y="1081.4087">&#956; selon Tableau C.6</text><polygon fill="#EEEEEE" points="905.571,1110.3984,918.071,1122.8984,905.571,1135.3984,893.071,1122.8984,905.571,1110.3984" style="stroke:#BEBEBE;stroke-width:0.5208;"/><rect fill="url(#gd7j8u8x6nry1)" height="45.8008" rx="4.1667" ry="4.1667" style="stroke:#EC7211;stroke-width:0.5208;" width="189.8865" x="810.6277" y="1212.4654"/><text fill="#FFFFFF" font-family="Verdana" font-size="12.5" lengthAdjust="spacing" textLength="158.6365" x="826.2527" y="1239.6932">&#956; = 0 (pas accumulation)</text><polygon fill="#EEEEEE" points="875.9547,1156.2317,935.1873,1156.2317,947.6873,1168.7317,935.1873,1181.2317,875.9547,1181.2317,863.4547,1168.7317,875.9547,1156.2317" style="stroke:#BEBEBE;stroke-width:0.5208;"/><text fill="#4E5D6C" font-family="Verdana" font-size="12.5" lengthAdjust="spacing" textLength="19.043" x="914.946" y="1198.0428">oui</text><text fill="#4E5D6C" font-family="Verdana" font-size="12.5" lengthAdjust="spacing" textLength="48.8159" x="881.163" y="1173.0591">&#945; &gt; 60&#176;</text><polygon fill="#EEEEEE" points="905.571,1279.0995,918.071,1291.5995,905.571,1304.0995,893.071,1291.5995,905.571,1279.0995" style="stroke:#BEBEBE;stroke-width:0.5208;"/><path d="M841.1163,1336.4237 L841.1163,1364.4999 L820.283,1368.6666 L841.1163,1372.8333 L841.1163,1400.9094 A0,0 0 0 0 841.1163,1400.9094 L1000.6846,1400.9094 A0,0 0 0 0 1000.6846,1400.9094 L1000.6846,1346.8404 L990.2679,1336.4237 L841.1163,1336.4237 A0,0 0 0 0 841.1163,1336.4237" fill="#0073BB" style="stroke:#005C96;stroke-width:1.0417;"/><path d="M990.2679,1336.4237 L990.2679,1346.8404 L1000.6846,1346.8404 L990.2679,1336.4237" fill="#0073BB" style="stroke:#005C96;stroke-width:1.0417;"/><text fill="#FFFFFF" font-family="Verdana" font-size="12.5" lengthAdjust="spacing" textLength="119.696" x="852.5747" y="1358.4432">&#8226; Normal: Ce = 1.0</text><text fill="#FFFFFF" font-family="Verdana" font-size="12.5" lengthAdjust="spacing" textLength="119.3298" x="852.5747" y="1372.994">&#8226; Expos&#233;: Ce = 0.8</text><text fill="#FFFFFF" font-family="Verdana" font-size="12.5" lengthAdjust="spacing" textLength="111.9385" x="852.5747" y="1387.5448">&#8226; Abrit&#233;: Ce = 1.2</text><rect fill="url(#gd7j8u8x6nry1)" height="45.8008" rx="4.1667" ry="4.1667" style="stroke:#EC7211;stroke-width:0.5208;" width="290.4968" x="529.7862" y="1345.7662"/><text fill="#FFFFFF" font-family="Verdana" font-size="12.5" lengthAdjust="spacing" textLength="259.2468" x="545.4112" y="1372.994">valeurs usuelles coefficient exposition Ce</text><rect fill="url(#gd7j8u8x6nry1)" height="45.8008" rx="4.1667" ry="4.1667" style="stroke:#EC7211;stroke-width:0.5208;" width="289.1113" x="530.4789" y="1421.7428"/><text fill="#FFFFFF" font-family="Verdana" font-size="12.5" lengthAdjust="spacing" textLength="257.8613" x="546.1039" y="1448.9705">Valeurs usuelles coefficient thermique Ct</text><polygon fill="#EEEEEE" points="601.8758,1488.3769,748.1934,1488.3769,760.6934,1500.8769,748.1934,1513.3769,601.8758,1513.3769,589.3758,1500.8769,601.8758,1488.3769" style="stroke:#BEBEBE;stroke-width:0.5208;"/><text fill="#4E5D6C" font-family="Verdana" font-size="12.5" lengthAdjust="spacing" textLength="135.9009" x="607.0841" y="1505.2043">Chauffage structure ?</text><text fill="#4E5D6C" font-family="Verdana" font-size="12.5" lengthAdjust="spacing" textLength="19.043" x="565.1245" y="1492.7205">oui</text><text fill="#4E5D6C" font-family="Verdana" font-size="12.5" lengthAdjust="spacing" textLength="23.4924" x="765.9017" y="1492.7205">non</text><rect fill="url(#gd7j8u8x6nry1)" height="45.8008" rx="4.1667" ry="4.1667" style="stroke:#EC7211;stroke-width:0.5208;" width="156.4087" x="500.7548" y="1523.7935"/><text fill="#FFFFFF" font-family="Verdana" font-size="12.5" lengthAdjust="spacing" textLength="125.1587" x="516.3798" y="1551.0213">Ct &lt; 1.0 (r&#233;duction)</text><rect fill="url(#gd7j8u8x6nry1)" height="45.8008" rx="4.1667" ry="4.1667" style="stroke:#EC7211;stroke-width:0.5208;" width="83.1787" x="729.5207" y="1523.7935"/><text fill="#FFFFFF" font-family="Verdana" font-size="12.5" lengthAdjust="spacing" textLength="51.9287" x="745.1457" y="1551.0213">Ct = 1.0</text><polygon fill="#EEEEEE" points="675.0346,1580.011,687.5346,1592.511,675.0346,1605.011,662.5346,1592.511,675.0346,1580.011" style="stroke:#BEBEBE;stroke-width:0.5208;"/><path d="M779.9103,1631.0527 L779.9103,1644.578 L759.0769,1648.7447 L779.9103,1652.9114 L779.9103,1666.4368 A0,0 0 0 0 779.9103,1666.4368 L954.1026,1666.4368 A0,0 0 0 0 954.1026,1666.4368 L954.1026,1641.4693 L943.6859,1631.0527 L779.9103,1631.0527 A0,0 0 0 0 779.9103,1631.0527" fill="#0073BB" style="stroke:#005C96;stroke-width:1.0417;"/><path d="M943.6859,1631.0527 L943.6859,1641.4693 L954.1026,1641.4693 L943.6859,1631.0527" fill="#0073BB" style="stroke:#005C96;stroke-width:1.0417;"/><text fill="#FFFFFF" font-family="Verdana" font-size="12.5" font-weight="bold" lengthAdjust="spacing" textLength="141.9006" x="791.3686" y="1653.0721">s = &#956; &#215; Ce &#215; Ct &#215; sk</text><rect fill="url(#gd7j8u8x6nry1)" height="45.8008" rx="4.1667" ry="4.1667" style="stroke:#EC7211;stroke-width:0.5208;" width="168.0847" x="590.9922" y="1625.8443"/><text fill="#FFFFFF" font-family="Verdana" font-size="12.5" lengthAdjust="spacing" textLength="136.8347" x="606.6172" y="1653.0721">Calculer charge neige</text><path d="M794.3542,1695.636 L794.3542,1723.7122 L773.5209,1727.8788 L794.3542,1732.0455 L794.3542,1760.1217 A0,0 0 0 0 794.3542,1760.1217 L1067.1,1760.1217 A0,0 0 0 0 1067.1,1760.1217 L1067.1,1706.0527 L1056.6833,1695.636 L794.3542,1695.636 A0,0 0 0 0 794.3542,1695.636" fill="#0073BB" style="stroke:#005C96;stroke-width:1.0417;"/><path d="M1056.6833,1695.636 L1056.6833,1706.0527 L1067.1,1706.0527 L1056.6833,1695.636" fill="#0073BB" style="stroke:#005C96;stroke-width:1.0417;"/><text fill="#FFFFFF" font-family="Verdana" font-size="12.5" lengthAdjust="spacing" textLength="109.8999" x="805.8126" y="1717.6554">Prochaine &#233;tape :</text><text fill="#FFFFFF" font-family="Verdana" font-size="12.5" font-weight="bold" lengthAdjust="spacing" textLength="240.4541" x="805.8126" y="1732.2062">Calcul des combinaisons d'actions</text><text fill="#FFFFFF" font-family="Verdana" font-size="12.5" lengthAdjust="spacing" textLength="216.7053" x="805.8126" y="1746.757">Voir fichier `portique_combi.puml`</text><rect fill="url(#gd7j8u8x6nry1)" height="45.8008" rx="4.1667" ry="4.1667" style="stroke:#EC7211;stroke-width:0.5208;" width="196.9727" x="576.5483" y="1704.9784"/><text fill="#FFFFFF" font-family="Verdana" font-size="12.5" lengthAdjust="spacing" textLength="165.7227" x="592.1733" y="1732.2062">Action de la neige termin&#233;</text><line style="stroke:#EC7211;stroke-width:3.125;" x1="675.0346" x2="675.0346" y1="114.4694" y2="163.3301"/><polygon fill="#EC7211" points="670.8679,152.9134,675.0346,163.3301,679.2013,152.9134,675.0346,157.0801" style="stroke:#EC7211;stroke-width:1.0417;"/><line style="stroke:#EC7211;stroke-width:3.125;" x1="675.0346" x2="675.0346" y1="395.4264" y2="426.6602"/><polygon fill="#EC7211" points="670.8679,416.2435,675.0346,426.6602,679.2013,416.2435,675.0346,420.4102" style="stroke:#EC7211;stroke-width:1.0417;"/><line style="stroke:#EC7211;stroke-width:3.125;" x1="743.9484" x2="1138.1063" y1="382.9264" y2="382.9264"/><polygon fill="#EC7211" points="1133.9396,444.3522,1138.1063,454.7689,1142.2729,444.3522,1138.1063,448.5189" style="stroke:#EC7211;stroke-width:3.125;"/><line style="stroke:#EC7211;stroke-width:3.125;" x1="1138.1063" x2="1138.1063" y1="382.9264" y2="505.7943"/><line style="stroke:#EC7211;stroke-width:3.125;" x1="1138.1063" x2="687.5346" y1="505.7943" y2="505.7943"/><polygon fill="#EC7211" points="697.9513,501.6276,687.5346,505.7943,697.9513,509.9609,693.7846,505.7943" style="stroke:#EC7211;stroke-width:1.0417;"/><line style="stroke:#EC7211;stroke-width:3.125;" x1="675.0346" x2="675.0346" y1="472.4609" y2="493.2943"/><polygon fill="#EC7211" points="670.8679,482.8776,675.0346,493.2943,679.2013,482.8776,675.0346,487.0443" style="stroke:#EC7211;stroke-width:1.0417;"/><line style="stroke:#EC7211;stroke-width:3.125;" x1="675.0346" x2="675.0346" y1="349.5931" y2="370.4264"/><polygon fill="#EC7211" points="670.8679,360.0098,675.0346,370.4264,679.2013,360.0098,675.0346,364.1764" style="stroke:#EC7211;stroke-width:1.0417;"/><line style="stroke:#EC7211;stroke-width:3.125;" x1="675.0346" x2="675.0346" y1="518.2943" y2="539.1276"/><polygon fill="#EC7211" points="670.8679,528.7109,675.0346,539.1276,679.2013,528.7109,675.0346,532.8776" style="stroke:#EC7211;stroke-width:1.0417;"/><line style="stroke:#EC7211;stroke-width:3.125;" x1="675.0346" x2="675.0346" y1="584.9284" y2="605.7617"/><polygon fill="#EC7211" points="670.8679,595.3451,675.0346,605.7617,679.2013,595.3451,675.0346,599.5117" style="stroke:#EC7211;stroke-width:1.0417;"/><line style="stroke:#EC7211;stroke-width:3.125;" x1="675.0346" x2="675.0346" y1="651.5625" y2="672.3958"/><polygon fill="#EC7211" points="670.8679,661.9792,675.0346,672.3958,679.2013,661.9792,675.0346,666.1458" style="stroke:#EC7211;stroke-width:1.0417;"/><line style="stroke:#EC7211;stroke-width:3.125;" x1="675.0346" x2="675.0346" y1="718.1966" y2="739.0299"/><polygon fill="#EC7211" points="670.8679,728.6133,675.0346,739.0299,679.2013,728.6133,675.0346,732.7799" style="stroke:#EC7211;stroke-width:1.0417;"/><line style="stroke:#EC7211;stroke-width:3.125;" x1="675.0346" x2="675.0346" y1="784.8307" y2="805.6641"/><polygon fill="#EC7211" points="670.8679,795.2474,675.0346,805.6641,679.2013,795.2474,675.0346,799.4141" style="stroke:#EC7211;stroke-width:1.0417;"/><line style="stroke:#EC7211;stroke-width:3.125;" x1="194.7596" x2="103.4444" y1="949.0051" y2="949.0051"/><line style="stroke:#EC7211;stroke-width:3.125;" x1="103.4444" x2="103.4444" y1="949.0051" y2="971.9218"/><polygon fill="#EC7211" points="99.2778,961.5051,103.4444,971.9218,107.6111,961.5051,103.4444,965.6718" style="stroke:#EC7211;stroke-width:1.0417;"/><line style="stroke:#EC7211;stroke-width:3.125;" x1="324.6465" x2="415.9617" y1="949.0051" y2="949.0051"/><line style="stroke:#EC7211;stroke-width:3.125;" x1="415.9617" x2="415.9617" y1="949.0051" y2="971.9218"/><polygon fill="#EC7211" points="411.795,961.5051,415.9617,971.9218,420.1284,961.5051,415.9617,965.6718" style="stroke:#EC7211;stroke-width:1.0417;"/><line style="stroke:#EC7211;stroke-width:3.125;" x1="103.4444" x2="103.4444" y1="1017.7226" y2="1046.8892"/><line style="stroke:#EC7211;stroke-width:3.125;" x1="103.4444" x2="247.2031" y1="1046.8892" y2="1046.8892"/><polygon fill="#EC7211" points="236.7864,1042.7226,247.2031,1046.8892,236.7864,1051.0559,240.9531,1046.8892" style="stroke:#EC7211;stroke-width:1.0417;"/><line style="stroke:#EC7211;stroke-width:3.125;" x1="415.9617" x2="415.9617" y1="1017.7226" y2="1046.8892"/><line style="stroke:#EC7211;stroke-width:3.125;" x1="415.9617" x2="272.2031" y1="1046.8892" y2="1046.8892"/><polygon fill="#EC7211" points="282.6197,1042.7226,272.2031,1046.8892,282.6197,1051.0559,278.4531,1046.8892" style="stroke:#EC7211;stroke-width:1.0417;"/><line style="stroke:#EC7211;stroke-width:3.125;" x1="840.6275" x2="749.3123" y1="1031.2642" y2="1031.2642"/><line style="stroke:#EC7211;stroke-width:3.125;" x1="749.3123" x2="749.3123" y1="1031.2642" y2="1054.1809"/><polygon fill="#EC7211" points="745.1457,1043.7642,749.3123,1054.1809,753.479,1043.7642,749.3123,1047.9309" style="stroke:#EC7211;stroke-width:1.0417;"/><line style="stroke:#EC7211;stroke-width:3.125;" x1="970.5144" x2="1061.8296" y1="1031.2642" y2="1031.2642"/><line style="stroke:#EC7211;stroke-width:3.125;" x1="1061.8296" x2="1061.8296" y1="1031.2642" y2="1054.1809"/><polygon fill="#EC7211" points="1057.663,1043.7642,1061.8296,1054.1809,1065.9963,1043.7642,1061.8296,1047.9309" style="stroke:#EC7211;stroke-width:1.0417;"/><line style="stroke:#EC7211;stroke-width:3.125;" x1="749.3123" x2="749.3123" y1="1099.9817" y2="1122.8984"/><line style="stroke:#EC7211;stroke-width:3.125;" x1="749.3123" x2="893.071" y1="1122.8984" y2="1122.8984"/><polygon fill="#EC7211" points="882.6543,1118.7317,893.071,1122.8984,882.6543,1127.065,886.821,1122.8984" style="stroke:#EC7211;stroke-width:1.0417;"/><line style="stroke:#EC7211;stroke-width:3.125;" x1="1061.8296" x2="1061.8296" y1="1099.9817" y2="1122.8984"/><line style="stroke:#EC7211;stroke-width:3.125;" x1="1061.8296" x2="918.071" y1="1122.8984" y2="1122.8984"/><polygon fill="#EC7211" points="928.4877,1118.7317,918.071,1122.8984,928.4877,1127.065,924.321,1122.8984" style="stroke:#EC7211;stroke-width:1.0417;"/><line style="stroke:#EC7211;stroke-width:3.125;" x1="905.571" x2="905.571" y1="982.3059" y2="1018.7642"/><polygon fill="#EC7211" points="901.4043,1008.3476,905.571,1018.7642,909.7377,1008.3476,905.571,1012.5142" style="stroke:#EC7211;stroke-width:1.0417;"/><line style="stroke:#EC7211;stroke-width:3.125;" x1="905.571" x2="905.571" y1="1181.2317" y2="1212.4654"/><polygon fill="#EC7211" points="901.4043,1202.0487,905.571,1212.4654,909.7377,1202.0487,905.571,1206.2154" style="stroke:#EC7211;stroke-width:1.0417;"/><line style="stroke:#EC7211;stroke-width:3.125;" x1="947.6873" x2="1010.9309" y1="1168.7317" y2="1168.7317"/><polygon fill="#EC7211" points="1006.7642,1230.1575,1010.9309,1240.5741,1015.0976,1230.1575,1010.9309,1234.3241" style="stroke:#EC7211;stroke-width:3.125;"/><line style="stroke:#EC7211;stroke-width:3.125;" x1="1010.9309" x2="1010.9309" y1="1168.7317" y2="1291.5995"/><line style="stroke:#EC7211;stroke-width:3.125;" x1="1010.9309" x2="918.071" y1="1291.5995" y2="1291.5995"/><polygon fill="#EC7211" points="928.4877,1287.4329,918.071,1291.5995,928.4877,1295.7662,924.321,1291.5995" style="stroke:#EC7211;stroke-width:1.0417;"/><line style="stroke:#EC7211;stroke-width:3.125;" x1="905.571" x2="905.571" y1="1258.2662" y2="1279.0995"/><polygon fill="#EC7211" points="901.4043,1268.6829,905.571,1279.0995,909.7377,1268.6829,905.571,1272.8495" style="stroke:#EC7211;stroke-width:1.0417;"/><line style="stroke:#EC7211;stroke-width:3.125;" x1="905.571" x2="905.571" y1="1135.3984" y2="1156.2317"/><polygon fill="#EC7211" points="901.4043,1145.815,905.571,1156.2317,909.7377,1145.815,905.571,1149.9817" style="stroke:#EC7211;stroke-width:1.0417;"/><line style="stroke:#EC7211;stroke-width:3.125;" x1="259.7031" x2="259.7031" y1="897.2982" y2="936.5051"/><polygon fill="#EC7211" points="255.5364,926.0885,259.7031,936.5051,263.8697,926.0885,259.7031,930.2551" style="stroke:#EC7211;stroke-width:1.0417;"/><line style="stroke:#EC7211;stroke-width:3.125;" x1="259.7031" x2="259.7031" y1="1059.3892" y2="1324.9329"/><polygon fill="#EC7211" points="255.5364,1314.5162,259.7031,1324.9329,263.8697,1314.5162,259.7031,1318.6829" style="stroke:#EC7211;stroke-width:1.0417;"/><line style="stroke:#EC7211;stroke-width:3.125;" x1="905.571" x2="905.571" y1="897.2982" y2="936.5051"/><polygon fill="#EC7211" points="901.4043,926.0885,905.571,936.5051,909.7377,926.0885,905.571,930.2551" style="stroke:#EC7211;stroke-width:1.0417;"/><line style="stroke:#EC7211;stroke-width:3.125;" x1="905.571" x2="905.571" y1="1304.0995" y2="1324.9329"/><polygon fill="#EC7211" points="901.4043,1314.5162,905.571,1324.9329,909.7377,1314.5162,905.571,1318.6829" style="stroke:#EC7211;stroke-width:1.0417;"/><line style="stroke:#EC7211;stroke-width:3.125;" x1="325.4613" x2="809.756" y1="884.7982" y2="884.7982"/><polygon fill="#EC7211" points="799.3393,880.6315,809.756,884.7982,799.3393,888.9648,803.506,884.7982" style="stroke:#EC7211;stroke-width:1.0417;"/><line style="stroke:#EC7211;stroke-width:3.125;" x1="675.0346" x2="675.0346" y1="851.4648" y2="856.6732"/><line style="stroke:#EC7211;stroke-width:3.125;" x1="675.0346" x2="259.7031" y1="856.6732" y2="856.6732"/><line style="stroke:#EC7211;stroke-width:3.125;" x1="259.7031" x2="259.7031" y1="856.6732" y2="872.2982"/><polygon fill="#EC7211" points="255.5364,861.8815,259.7031,872.2982,263.8697,861.8815,259.7031,866.0482" style="stroke:#EC7211;stroke-width:1.0417;"/><line style="stroke:#EC7211;stroke-width:3.125;" x1="1001.386" x2="1288.6108" y1="884.7982" y2="884.7982"/><line style="stroke:#EC7211;stroke-width:3.125;" x1="1288.6108" x2="1288.6108" y1="884.7982" y2="1126.0396"/><line style="stroke:#EC7211;stroke-width:3.125;" x1="1288.6108" x2="1288.6108" y1="1126.0396" y2="1324.9329"/><polygon fill="#EC7211" points="1284.4442,1314.5162,1288.6108,1324.9329,1292.7775,1314.5162,1288.6108,1318.6829" style="stroke:#EC7211;stroke-width:1.0417;"/><line style="stroke:#EC7211;stroke-width:3.125;" x1="259.7031" x2="1288.6108" y1="1324.9329" y2="1324.9329"/><line style="stroke:#EC7211;stroke-width:3.125;" x1="675.0346" x2="675.0346" y1="1324.9329" y2="1345.7662"/><polygon fill="#EC7211" points="670.8679,1335.3495,675.0346,1345.7662,679.2013,1335.3495,675.0346,1339.5162" style="stroke:#EC7211;stroke-width:1.0417;"/><line style="stroke:#EC7211;stroke-width:3.125;" x1="675.0346" x2="675.0346" y1="1391.567" y2="1421.7428"/><polygon fill="#EC7211" points="670.8679,1411.3261,675.0346,1421.7428,679.2013,1411.3261,675.0346,1415.4928" style="stroke:#EC7211;stroke-width:1.0417;"/><line style="stroke:#EC7211;stroke-width:3.125;" x1="589.3758" x2="578.9591" y1="1500.8769" y2="1500.8769"/><line style="stroke:#EC7211;stroke-width:3.125;" x1="578.9591" x2="578.9591" y1="1500.8769" y2="1523.7935"/><polygon fill="#EC7211" points="574.7925,1513.3769,578.9591,1523.7935,583.1258,1513.3769,578.9591,1517.5435" style="stroke:#EC7211;stroke-width:1.0417;"/><line style="stroke:#EC7211;stroke-width:3.125;" x1="760.6934" x2="771.11" y1="1500.8769" y2="1500.8769"/><line style="stroke:#EC7211;stroke-width:3.125;" x1="771.11" x2="771.11" y1="1500.8769" y2="1523.7935"/><polygon fill="#EC7211" points="766.9434,1513.3769,771.11,1523.7935,775.2767,1513.3769,771.11,1517.5435" style="stroke:#EC7211;stroke-width:1.0417;"/><line style="stroke:#EC7211;stroke-width:3.125;" x1="578.9591" x2="578.9591" y1="1569.5943" y2="1592.511"/><line style="stroke:#EC7211;stroke-width:3.125;" x1="578.9591" x2="662.5346" y1="1592.511" y2="1592.511"/><polygon fill="#EC7211" points="652.1179,1588.3443,662.5346,1592.511,652.1179,1596.6777,656.2846,1592.511" style="stroke:#EC7211;stroke-width:1.0417;"/><line style="stroke:#EC7211;stroke-width:3.125;" x1="771.11" x2="771.11" y1="1569.5943" y2="1592.511"/><line style="stroke:#EC7211;stroke-width:3.125;" x1="771.11" x2="687.5346" y1="1592.511" y2="1592.511"/><polygon fill="#EC7211" points="697.9513,1588.3443,687.5346,1592.511,697.9513,1596.6777,693.7846,1592.511" style="stroke:#EC7211;stroke-width:1.0417;"/><line style="stroke:#EC7211;stroke-width:3.125;" x1="675.0346" x2="675.0346" y1="1467.5435" y2="1488.3769"/><polygon fill="#EC7211" points="670.8679,1477.9602,675.0346,1488.3769,679.2013,1477.9602,675.0346,1482.1269" style="stroke:#EC7211;stroke-width:1.0417;"/><line style="stroke:#EC7211;stroke-width:3.125;" x1="675.0346" x2="675.0346" y1="1605.011" y2="1625.8443"/><polygon fill="#EC7211" points="670.8679,1615.4277,675.0346,1625.8443,679.2013,1615.4277,675.0346,1619.5943" style="stroke:#EC7211;stroke-width:1.0417;"/><line style="stroke:#EC7211;stroke-width:3.125;" x1="675.0346" x2="675.0346" y1="209.1309" y2="303.7923"/><polygon fill="#EC7211" points="670.8679,293.3757,675.0346,303.7923,679.2013,293.3757,675.0346,297.5423" style="stroke:#EC7211;stroke-width:1.0417;"/><line style="stroke:#EC7211;stroke-width:3.125;" x1="675.0346" x2="675.0346" y1="1671.6451" y2="1704.9784"/><polygon fill="#EC7211" points="670.8679,1694.5618,675.0346,1704.9784,679.2013,1694.5618,675.0346,1698.7284" style="stroke:#EC7211;stroke-width:1.0417;"/><!--SRC=[pLRDRjj64BxpAQRfmPHQKoJbkZ7bg51enKtH6a4JvD0WQ5RKKjfc-TFziOqM1V8MHMz5BuLkRQ_DARhx8V8adTqrPL6oWzR8eH10YDoTcM- - -Vr0pMb1WPp9tKgGSaOzJp75gGTmADaFD8dsXuUJuOZFAi7K7AzEAHonWfQILMM9igM2HvLGx7jDuJxRFQL2ab8TzYR3mvxHCBnIjJSSdq3K3_iH-2CKFgUGTk0ZC5yF3gBTQBU_9HCF_L6cq9OqbZc1ah8PxJJtQ3a51zYJYWZbUSaHubekADxVGN02_mwyib8K19lD5MhkTe-NYwfOBfHW5EfBy4ctQyvWLCuuVaLHf8NNSmB-cpywdfNxiie8Pv8OFCtzRwgIGiPPGQmQfuCZ9eru_Q9ZFwISI6cvarG8Qc4RJ9vN8sXczC6TRZVzVFJryVWn78tXPFpmUDpjte4VZUda2D5IKR2I2aF2AU5K2yY881b-PzBnxnZAvaJCx8lb2eW6MN6GBpyE1u3ADiXOOnzzWcVFvahLCkdrU1Pavxryx_7T-rzyM9CPlVSfF24JJb5X7wOQPfgXaVJ9m_IhvyzHryehC6PO3ZvfY1X278P51p3TIl0hpGmlw5TAUAOvEkL0ostKcfrYFW5_- -gNHjl0ohRS-8-EzE7Dxz0FukkyQFb1EORDBwkou_nZ-LOqCFeLpNEMCLCBKuFpEosLAurS-cNdEjPF7a1J3BjHxsGKXt7O0drsTXRCgWgJCSY5II2DIA8mYCqF_BYpINcILWBrkmIvCGSsi9WtKjUSPJQf3HyjRtQkVDcmXXpah6I60Bak8uqEB8RbGZ2qQb9UYvnaI74nk3xx70b974O7xw2WwHX1jErvaqKOZ7GDFcORHibKHghUZ-tucaHlfSCwUtabi65Ul7u_flitrDW3QqLLM1g2mcTDZLqsOWar9qgwSZFNCsABp2N8wlOKMuXW4ssJG9VCGdT2wE35Q-nR74-Qya-3FHXSdbvvbjpeXAIsXnilBiFNb5RBSFalZNzoMzlnLONRIhOa6Y266TkQ9In_RSYKS5ej_rPcc6nthXKi5sMiEJSpBluQt9xh_ntJ-xUrtTzYsX1oyITEWlqG1-ecdyxyFGZ1hv4racMwqDmsfSwWfSbh_KtSA9IWfQPyenS1FQyhwSPhIhVA4E3jgz_W13aWFC4BQ3uAmjN1s0Wl5vSdON3N6dHdemckGwkpA8YtkyBJTm7Rx4o6d7HET9xZU08CbCxQvRmsCXKS6fpWusuprTcAejQiSXUjGuCsOzxss7L3uXf-kbs9EZ0mov-Df-Qfp5E-jDlFokEVSEzoQzhwbWQkAouN6mlO8r6XNMoNW8sJr1GIsnCTA5HWg2ech2HCshrlXxWDqDfyMk7CGHhd3E6_QBQtRwr4KEk2lxZQhlu1]--></g></svg>