<svg xmlns="http://www.w3.org/2000/svg" xmlns:xlink="http://www.w3.org/1999/xlink" contentStyleType="text/css" data-diagram-type="ACTIVITY" height="1876.0417px" preserveAspectRatio="none" style="width:1023px;height:1876px;" version="1.1" viewBox="0 0 1023 1876" width="1023.9583px" zoomAndPan="magnify"><title>&lt;size:16&gt;&lt;b&gt;Algorithme de Dimensionnement Portique Bi-versant&lt;/b&gt;&lt;/size&gt;</title><defs><linearGradient id="gipn7k7k2j4o90" x1="50%" x2="50%" y1="0%" y2="100%"><stop offset="0%" stop-color="#FFFFFF"/><stop offset="100%" stop-color="#EEEEEE"/></linearGradient><linearGradient id="gipn7k7k2j4o91" x1="50%" x2="50%" y1="0%" y2="100%"><stop offset="0%" stop-color="#F18E3E"/><stop offset="100%" stop-color="#EC7211"/></linearGradient></defs><g><g class="title" data-source-line="3"><rect fill="url(#gipn7k7k2j4o90)" height="71.7611" rx="4.1667" ry="4.1667" style="stroke:#EEEEEE;stroke-width:1.0417;" width="519.7917" x="250.5646" y="15.625"/><text fill="#EC7211" font-family="Verdana" font-size="16.6667" font-weight="bold" lengthAdjust="spacing" textLength="498.9583" x="260.9812" y="41.512">Algorithme de Dimensionnement Portique Bi-versant</text><text fill="#EC7211" font-family="Verdana" font-size="14.5833" font-weight="bold" lengthAdjust="spacing" textLength="236.8154" x="392.0527" y="58.9793">EN 13031-1:2019 (clause 10)</text><text fill="#EC7211" font-family="Verdana" font-size="12.5" font-weight="bold" lengthAdjust="spacing" textLength="341.0217" x="339.9495" y="74.0214">(Combinaisons d&#8217;actions applicables aux serres)</text></g><ellipse cx="512.0229" cy="104.0527" fill="#0073BB" rx="10.4167" ry="10.4167" style="stroke:#222222;stroke-width:1.0417;"/><path d="M604.1758,124.8861 L604.1758,203.89 L583.3425,208.0566 L604.1758,212.2233 L604.1758,291.2272 A0,0 0 0 0 604.1758,291.2272 L849.9318,291.2272 A0,0 0 0 0 849.9318,291.2272 L849.9318,135.3027 L839.5152,124.8861 L604.1758,124.8861 A0,0 0 0 0 604.1758,124.8861" fill="#0073BB" style="stroke:#005C96;stroke-width:1.0417;"/><path d="M839.5152,124.8861 L839.5152,135.3027 L849.9318,135.3027 L839.5152,124.8861" fill="#0073BB" style="stroke:#005C96;stroke-width:1.0417;"/><text fill="#FFFFFF" font-family="Verdana" font-size="12.5" font-weight="bold" lengthAdjust="spacing" textLength="154.8401" x="615.6342" y="146.9055">Actions permanentes:</text><ellipse cx="621.3633" cy="156.5918" fill="#FFFFFF" rx="2.6042" ry="2.6042"/><text fill="#FFFFFF" font-family="Verdana" font-size="12.5" lengthAdjust="spacing" textLength="107.4158" x="628.1342" y="161.4563">Poids propre Gk1</text><ellipse cx="621.3633" cy="171.1426" fill="#FFFFFF" rx="2.6042" ry="2.6042"/><text fill="#FFFFFF" font-family="Verdana" font-size="12.5" lengthAdjust="spacing" textLength="180.3467" x="628.1342" y="176.0071">Actions des installations Gk2</text><text fill="#FFFFFF" font-family="Verdana" font-size="12.5" lengthAdjust="spacing" textLength="3.9734" x="615.6342" y="190.5579">&#160;</text><text fill="#FFFFFF" font-family="Verdana" font-size="12.5" font-weight="bold" lengthAdjust="spacing" textLength="126.239" x="615.6342" y="205.1086">Actions variables:</text><ellipse cx="621.3633" cy="214.7949" fill="#FFFFFF" rx="2.6042" ry="2.6042"/><text fill="#FFFFFF" font-family="Verdana" font-size="12.5" lengthAdjust="spacing" textLength="160.3577" x="628.1342" y="219.6594">Actions dues au vent Qk1</text><ellipse cx="621.3633" cy="229.3457" fill="#FFFFFF" rx="2.6042" ry="2.6042"/><text fill="#FFFFFF" font-family="Verdana" font-size="12.5" lengthAdjust="spacing" textLength="174.3408" x="628.1342" y="234.2102">Actions dues &#224; la neige Qk2</text><ellipse cx="621.3633" cy="243.8965" fill="#FFFFFF" rx="2.6042" ry="2.6042"/><text fill="#FFFFFF" font-family="Verdana" font-size="12.5" lengthAdjust="spacing" textLength="190.2771" x="628.1342" y="248.761">Actions dues aux cultures Qk3</text><ellipse cx="621.3633" cy="258.4473" fill="#FFFFFF" rx="2.6042" ry="2.6042"/><text fill="#FFFFFF" font-family="Verdana" font-size="12.5" lengthAdjust="spacing" textLength="200.9644" x="628.1342" y="263.3118">Action verticale concentr&#233;e Qk4</text><text fill="#FFFFFF" font-family="Verdana" font-size="12.5" font-weight="bold" lengthAdjust="spacing" textLength="108.1055" x="615.6342" y="277.8625">Classe de serre</text><rect fill="url(#gipn7k7k2j4o91)" height="45.8008" rx="4.1667" ry="4.1667" style="stroke:#EC7211;stroke-width:0.5208;" width="142.6392" x="440.7033" y="185.1563"/><text fill="#FFFFFF" font-family="Verdana" font-size="12.5" lengthAdjust="spacing" textLength="111.3892" x="456.3283" y="212.384">Donn&#233;es d'entr&#233;e</text><rect fill="none" height="170.7357" rx="4.1667" ry="4.1667" style="stroke:#EC7211;stroke-width:1.5625;" width="935.2407" x="44.0989" y="301.6439"/><path d="M255.899,301.6439 L255.899,319.3197 L245.4824,329.7363 L44.0989,329.7363" fill="none" style="stroke:#EC7211;stroke-width:1.5625;"/><text fill="#EC7211" font-family="Verdana" font-size="12.5" font-weight="bold" lengthAdjust="spacing" textLength="190.9668" x="52.4323" y="319.4967">COMBINAISONS D'ACTIONS</text><path d="M54.5156,352.653 L54.5156,388.0371 A0,0 0 0 0 54.5156,388.0371 L395.8466,388.0371 A0,0 0 0 0 395.8466,388.0371 L395.8466,374.5117 L416.6799,370.3451 L395.8466,366.1784 L395.8466,363.0697 L385.4299,352.653 L54.5156,352.653 A0,0 0 0 0 54.5156,352.653" fill="#0073BB" style="stroke:#005C96;stroke-width:1.0417;"/><path d="M385.4299,352.653 L385.4299,363.0697 L395.8466,363.0697 L385.4299,352.653" fill="#0073BB" style="stroke:#005C96;stroke-width:1.0417;"/><text fill="#FFFFFF" font-family="Verdana" font-size="12.5" font-weight="bold" lengthAdjust="spacing" textLength="163.5681" x="65.9739" y="374.6724">NF EN 13031-1/NA2020</text><text fill="#FFFFFF" font-family="Verdana" font-size="12.5" lengthAdjust="spacing" textLength="3.9734" x="229.542" y="374.6724">&#160;</text><a href="https://www.google.fr" target="_top" title="https://www.google.fr" xlink:actuate="onRequest" xlink:href="https://www.google.fr" xlink:show="new" xlink:title="https://www.google.fr" xlink:type="simple"><text fill="#0000FF" font-family="Verdana" font-size="12.5" lengthAdjust="spacing" text-decoration="underline" textLength="141.4978" x="233.5154" y="374.6724">Tableau 4 &amp; Tableau 5</text></a><rect fill="url(#gipn7k7k2j4o91)" height="45.8008" rx="4.1667" ry="4.1667" style="stroke:#EC7211;stroke-width:0.5208;" width="190.686" x="416.6799" y="347.4447"/><text fill="#FFFFFF" font-family="Verdana" font-size="12.5" lengthAdjust="spacing" textLength="159.436" x="432.3049" y="374.6724">D&#233;finir combinaisons ELU</text><path d="M627.592,419.2871 L627.592,432.8125 L606.7586,436.9792 L627.592,441.1458 L627.592,454.6712 A0,0 0 0 0 627.592,454.6712 L968.9229,454.6712 A0,0 0 0 0 968.9229,454.6712 L968.9229,429.7038 L958.5063,419.2871 L627.592,419.2871 A0,0 0 0 0 627.592,419.2871" fill="#0073BB" style="stroke:#005C96;stroke-width:1.0417;"/><path d="M958.5063,419.2871 L958.5063,429.7038 L968.9229,429.7038 L958.5063,419.2871" fill="#0073BB" style="stroke:#005C96;stroke-width:1.0417;"/><text fill="#FFFFFF" font-family="Verdana" font-size="12.5" font-weight="bold" lengthAdjust="spacing" textLength="163.5681" x="639.0503" y="441.3066">NF EN 13031-1/NA2020</text><text fill="#FFFFFF" font-family="Verdana" font-size="12.5" lengthAdjust="spacing" textLength="3.9734" x="802.6184" y="441.3066">&#160;</text><a href="https://www.google.fr" target="_top" title="https://www.google.fr" xlink:actuate="onRequest" xlink:href="https://www.google.fr" xlink:show="new" xlink:title="https://www.google.fr" xlink:type="simple"><text fill="#0000FF" font-family="Verdana" font-size="12.5" lengthAdjust="spacing" text-decoration="underline" textLength="141.4978" x="806.5918" y="441.3066">Tableau 4 &amp; Tableau 5</text></a><rect fill="url(#gipn7k7k2j4o91)" height="45.8008" rx="4.1667" ry="4.1667" style="stroke:#EC7211;stroke-width:0.5208;" width="189.4714" x="417.2872" y="414.0788"/><text fill="#FFFFFF" font-family="Verdana" font-size="12.5" lengthAdjust="spacing" textLength="158.2214" x="432.9122" y="441.3066">D&#233;finir combinaisons ELS</text><rect fill="none" height="898.6938" rx="4.1667" ry="4.1667" style="stroke:#EC7211;stroke-width:1.5625;" width="988.3911" x="17.8274" y="482.7962"/><path d="M228.9988,482.7962 L228.9988,500.472 L218.5822,510.8887 L17.8274,510.8887" fill="none" style="stroke:#EC7211;stroke-width:1.5625;"/><text fill="#EC7211" font-family="Verdana" font-size="12.5" font-weight="bold" lengthAdjust="spacing" textLength="190.3381" x="26.1607" y="500.649">VERIFICATION RESISTANCE</text><rect fill="url(#gipn7k7k2j4o91)" height="45.8008" rx="4.1667" ry="4.1667" style="stroke:#EC7211;stroke-width:0.5208;" width="157.5806" x="433.2326" y="528.597"/><text fill="#FFFFFF" font-family="Verdana" font-size="12.5" lengthAdjust="spacing" textLength="126.3306" x="448.8576" y="555.8248">V&#233;rification poteaux</text><polygon fill="#EEEEEE" points="182.2133,595.2311,276.0895,595.2311,288.5895,607.7311,276.0895,620.2311,182.2133,620.2311,169.7133,607.7311,182.2133,595.2311" style="stroke:#BEBEBE;stroke-width:0.5208;"/><text fill="#4E5D6C" font-family="Verdana" font-size="12.5" lengthAdjust="spacing" textLength="141.8091" x="238.5264" y="637.0422">Compression + flexion</text><text fill="#4E5D6C" font-family="Verdana" font-size="12.5" lengthAdjust="spacing" textLength="83.4595" x="187.4217" y="612.0585">Sollicitation ?</text><path d="M338.3362,659.4381 L338.3362,687.5142 L317.5028,691.6809 L338.3362,695.8476 L338.3362,723.9237 A0,0 0 0 0 338.3362,723.9237 L590.7572,723.9237 A0,0 0 0 0 590.7572,723.9237 L590.7572,669.8547 L580.3406,659.4381 L338.3362,659.4381 A0,0 0 0 0 338.3362,659.4381" fill="#0073BB" style="stroke:#005C96;stroke-width:1.0417;"/><path d="M580.3406,659.4381 L580.3406,669.8547 L590.7572,669.8547 L580.3406,659.4381" fill="#0073BB" style="stroke:#005C96;stroke-width:1.0417;"/><text fill="#FFFFFF" font-family="Verdana" font-size="12.5" font-weight="bold" lengthAdjust="spacing" textLength="79.8523" x="349.7945" y="681.4575">M&#233;thode 1:</text><text fill="#FFFFFF" font-family="Verdana" font-size="12.5" lengthAdjust="spacing" textLength="3.9734" x="429.6468" y="681.4575">&#160;</text><a href="https://lc.cx/5wSfsY#page=67" target="_top" title="https://lc.cx/5wSfsY#page=67" xlink:actuate="onRequest" xlink:href="https://lc.cx/5wSfsY#page=67" xlink:show="new" xlink:title="https://lc.cx/5wSfsY#page=67" xlink:type="simple"><text fill="#0000FF" font-family="Verdana" font-size="12.5" lengthAdjust="spacing" text-decoration="underline" textLength="136.3037" x="433.6202" y="681.4575">EN 1993-1-1 Art 6.3.3</text></a><text fill="#FFFFFF" font-family="Verdana" font-size="12.5" lengthAdjust="spacing" textLength="3.9734" x="349.7945" y="696.0083">&#160;</text><text fill="#FFFFFF" font-family="Verdana" font-size="12.5" lengthAdjust="spacing" textLength="138.6536" x="349.7945" y="710.5591">N/NRd + M/MRd &#8804; 1.0</text><rect fill="url(#gipn7k7k2j4o91)" height="45.8008" rx="4.1667" ry="4.1667" style="stroke:#EC7211;stroke-width:0.5208;" width="176.7029" x="140.8" y="668.7805"/><text fill="#FFFFFF" font-family="Verdana" font-size="12.5" lengthAdjust="spacing" textLength="145.4529" x="156.425" y="696.0083">V&#233;rifier interaction N/M</text><path d="M328.3875,760.3821 L328.3875,788.4583 L307.5541,792.6249 L328.3875,796.7916 L328.3875,824.8678 A0,0 0 0 0 328.3875,824.8678 L595.1396,824.8678 A0,0 0 0 0 595.1396,824.8678 L595.1396,770.7987 L584.7229,760.3821 L328.3875,760.3821 A0,0 0 0 0 328.3875,760.3821" fill="#0073BB" style="stroke:#005C96;stroke-width:1.0417;"/><path d="M584.7229,760.3821 L584.7229,770.7987 L595.1396,770.7987 L584.7229,760.3821" fill="#0073BB" style="stroke:#005C96;stroke-width:1.0417;"/><text fill="#FFFFFF" font-family="Verdana" font-size="12.5" font-weight="bold" lengthAdjust="spacing" textLength="114.1235" x="339.8458" y="782.4015">&#967; &#215; Nt,Rd &#8805; NEd</text><text fill="#FFFFFF" font-family="Verdana" font-size="12.5" lengthAdjust="spacing" textLength="3.9734" x="339.8458" y="796.9523">&#160;</text><text fill="#FFFFFF" font-family="Verdana" font-size="12.5" lengthAdjust="spacing" textLength="234.4604" x="339.8458" y="811.5031">&#967; = coefficient r&#233;duction flambement</text><rect fill="url(#gipn7k7k2j4o91)" height="45.8008" rx="4.1667" ry="4.1667" style="stroke:#EC7211;stroke-width:0.5208;" width="156.8054" x="150.7487" y="769.7245"/><text fill="#FFFFFF" font-family="Verdana" font-size="12.5" lengthAdjust="spacing" textLength="125.5554" x="166.3737" y="796.9523">V&#233;rifier flambement</text><polygon fill="#EEEEEE" points="628.4729,595.2311,735.3739,595.2311,747.8739,607.7311,735.3739,620.2311,628.4729,620.2311,615.9729,607.7311,628.4729,595.2311" style="stroke:#BEBEBE;stroke-width:0.5208;"/><text fill="#4E5D6C" font-family="Verdana" font-size="12.5" lengthAdjust="spacing" textLength="19.043" x="691.2984" y="637.0422">oui</text><text fill="#4E5D6C" font-family="Verdana" font-size="12.5" lengthAdjust="spacing" textLength="96.4844" x="633.6812" y="612.0585">Traction simple</text><text fill="#4E5D6C" font-family="Verdana" font-size="12.5" lengthAdjust="spacing" textLength="90.0269" x="753.0823" y="599.5748">Flexion simple</text><rect fill="url(#gipn7k7k2j4o91)" height="45.8008" rx="4.1667" ry="4.1667" style="stroke:#EC7211;stroke-width:0.5208;" width="109.6985" x="627.0742" y="659.4381"/><text fill="#FFFFFF" font-family="Verdana" font-size="12.5" lengthAdjust="spacing" textLength="78.4485" x="642.6992" y="686.6659">NEd &#8804; Nt,Rd</text><rect fill="url(#gipn7k7k2j4o91)" height="45.8008" rx="4.1667" ry="4.1667" style="stroke:#EC7211;stroke-width:0.5208;" width="114.5386" x="768.7073" y="709.8938"/><text fill="#FFFFFF" font-family="Verdana" font-size="12.5" lengthAdjust="spacing" textLength="83.2886" x="784.3323" y="737.1216">MEd &#8804; Mc,Rd</text><path d="M248.3175,856.1178 L248.3175,935.1542 A0,0 0 0 0 248.3175,935.1542 L408.6548,935.1542 A0,0 0 0 0 408.6548,935.1542 L408.6548,899.8027 L429.4881,895.636 L408.6548,891.4693 L408.6548,866.5344 L398.2381,856.1178 L248.3175,856.1178 A0,0 0 0 0 248.3175,856.1178" fill="#0073BB" style="stroke:#005C96;stroke-width:1.0417;"/><path d="M398.2381,856.1178 L398.2381,866.5344 L408.6548,866.5344 L398.2381,856.1178" fill="#0073BB" style="stroke:#005C96;stroke-width:1.0417;"/><text fill="#FFFFFF" font-family="Verdana" font-size="12.5" lengthAdjust="spacing" textLength="128.0457" x="259.7758" y="878.1372">&#8226; Moment de flexion</text><text fill="#FFFFFF" font-family="Verdana" font-size="12.5" lengthAdjust="spacing" textLength="110.6079" x="259.7758" y="892.688">&#8226; Effort tranchant</text><text fill="#FFFFFF" font-family="Verdana" font-size="12.5" lengthAdjust="spacing" textLength="95.7825" x="259.7758" y="907.2388">&#8226; D&#233;versement</text><text fill="#FFFFFF" font-family="Verdana" font-size="12.5" lengthAdjust="spacing" textLength="107.9712" x="259.7758" y="921.7896">&#8226; Voilement local</text><rect fill="url(#gipn7k7k2j4o91)" height="45.8008" rx="4.1667" ry="4.1667" style="stroke:#EC7211;stroke-width:0.5208;" width="165.0696" x="429.4881" y="872.7356"/><text fill="#FFFFFF" font-family="Verdana" font-size="12.5" lengthAdjust="spacing" textLength="133.8196" x="445.1131" y="899.9634">V&#233;rification traverses</text><rect fill="url(#gipn7k7k2j4o91)" height="45.8008" rx="4.1667" ry="4.1667" style="stroke:#EC7211;stroke-width:0.5208;" width="188.1836" x="417.9311" y="955.9875"/><text fill="#FFFFFF" font-family="Verdana" font-size="12.5" lengthAdjust="spacing" textLength="156.9336" x="433.5561" y="983.2153">V&#233;rification assemblages</text><polygon fill="#EEEEEE" points="66.0411,1022.6217,196.9411,1022.6217,209.4411,1035.1217,196.9411,1047.6217,66.0411,1047.6217,53.5411,1035.1217,66.0411,1022.6217" style="stroke:#BEBEBE;stroke-width:0.5208;"/><text fill="#4E5D6C" font-family="Verdana" font-size="12.5" lengthAdjust="spacing" textLength="58.8013" x="140.8661" y="1064.4328">Boulonn&#233;</text><text fill="#4E5D6C" font-family="Verdana" font-size="12.5" lengthAdjust="spacing" textLength="120.4834" x="71.2494" y="1039.4491">Type assemblage ?</text><rect fill="url(#gipn7k7k2j4o91)" height="45.8008" rx="4.1667" ry="4.1667" style="stroke:#EC7211;stroke-width:0.5208;" width="198.1873" x="32.3975" y="1086.8286"/><text fill="#FFFFFF" font-family="Verdana" font-size="12.5" lengthAdjust="spacing" textLength="166.9373" x="48.0225" y="1114.0564">V&#233;rifier r&#233;sistance boulons</text><rect fill="url(#gipn7k7k2j4o91)" height="45.8008" rx="4.1667" ry="4.1667" style="stroke:#EC7211;stroke-width:0.5208;" width="158.9233" x="52.0294" y="1153.4627"/><text fill="#FFFFFF" font-family="Verdana" font-size="12.5" lengthAdjust="spacing" textLength="127.6733" x="67.6544" y="1180.6905">&#8226; Cisaillement Fv,Rd</text><rect fill="url(#gipn7k7k2j4o91)" height="45.8008" rx="4.1667" ry="4.1667" style="stroke:#EC7211;stroke-width:0.5208;" width="206.4941" x="28.244" y="1235.7218"/><text fill="#FFFFFF" font-family="Verdana" font-size="12.5" lengthAdjust="spacing" textLength="175.2441" x="43.869" y="1262.9496">&#8226; Pression diam&#233;trale Fb,Rd</text><path d="M217.5771,1307.5643 L217.5771,1321.0897 L196.7438,1325.2563 L217.5771,1329.423 L217.5771,1342.9484 A0,0 0 0 0 217.5771,1342.9484 L374.2462,1342.9484 A0,0 0 0 0 374.2462,1342.9484 L374.2462,1317.981 L363.8295,1307.5643 L217.5771,1307.5643 A0,0 0 0 0 217.5771,1307.5643" fill="#0073BB" style="stroke:#005C96;stroke-width:1.0417;"/><path d="M363.8295,1307.5643 L363.8295,1317.981 L374.2462,1317.981 L363.8295,1307.5643" fill="#0073BB" style="stroke:#005C96;stroke-width:1.0417;"/><a href="https://lc.cx/n4nYWb#page=26" target="_top" title="https://lc.cx/n4nYWb#page=26" xlink:actuate="onRequest" xlink:href="https://lc.cx/n4nYWb#page=26" xlink:show="new" xlink:title="https://lc.cx/n4nYWb#page=26" xlink:type="simple"><text fill="#0000FF" font-family="Verdana" font-size="12.5" lengthAdjust="spacing" text-decoration="underline" textLength="124.3774" x="229.0354" y="1329.5837">EN 1993-1-8 Art 3.6</text></a><rect fill="url(#gipn7k7k2j4o91)" height="45.8008" rx="4.1667" ry="4.1667" style="stroke:#EC7211;stroke-width:0.5208;" width="130.5054" x="66.2384" y="1302.356"/><text fill="#FFFFFF" font-family="Verdana" font-size="12.5" lengthAdjust="spacing" textLength="99.2554" x="81.8634" y="1329.5837">&#8226; Traction Ft,Rd</text><polygon fill="#EEEEEE" points="462.9059,1022.6217,512.4522,1022.6217,524.9522,1035.1217,512.4522,1047.6217,462.9059,1047.6217,450.4059,1035.1217,462.9059,1022.6217" style="stroke:#BEBEBE;stroke-width:0.5208;"/><text fill="#4E5D6C" font-family="Verdana" font-size="12.5" lengthAdjust="spacing" textLength="19.043" x="497.054" y="1064.4328">oui</text><text fill="#4E5D6C" font-family="Verdana" font-size="12.5" lengthAdjust="spacing" textLength="39.1296" x="468.1142" y="1039.4491">Soud&#233;</text><text fill="#4E5D6C" font-family="Verdana" font-size="12.5" lengthAdjust="spacing" textLength="87.2864" x="530.1605" y="1026.9653">Encastrement</text><path d="M601.1119,1092.0369 L601.1119,1105.5623 L580.2785,1109.729 L601.1119,1113.8957 L601.1119,1127.4211 A0,0 0 0 0 601.1119,1127.4211 L745.8547,1127.4211 A0,0 0 0 0 745.8547,1127.4211 L745.8547,1102.4536 L735.438,1092.0369 L601.1119,1092.0369 A0,0 0 0 0 601.1119,1092.0369" fill="#0073BB" style="stroke:#005C96;stroke-width:1.0417;"/><path d="M735.438,1092.0369 L735.438,1102.4536 L745.8547,1102.4536 L735.438,1092.0369" fill="#0073BB" style="stroke:#005C96;stroke-width:1.0417;"/><a href="https://lc.cx/n4nYWb#page=40" target="_top" title="https://lc.cx/n4nYWb#page=40" xlink:actuate="onRequest" xlink:href="https://lc.cx/n4nYWb#page=40" xlink:show="new" xlink:title="https://lc.cx/n4nYWb#page=40" xlink:type="simple"><text fill="#0000FF" font-family="Verdana" font-size="12.5" lengthAdjust="spacing" text-decoration="underline" textLength="112.4512" x="612.5702" y="1114.0564">EN 1993-1-8 Art 4</text></a><rect fill="url(#gipn7k7k2j4o91)" height="45.8008" rx="4.1667" ry="4.1667" style="stroke:#EC7211;stroke-width:0.5208;" width="185.199" x="395.0795" y="1086.8286"/><text fill="#FFFFFF" font-family="Verdana" font-size="12.5" lengthAdjust="spacing" textLength="153.949" x="410.7045" y="1114.0564">V&#233;rifier cordons soudure</text><rect fill="url(#gipn7k7k2j4o91)" height="45.8008" rx="4.1667" ry="4.1667" style="stroke:#EC7211;stroke-width:0.5208;" width="229.1138" x="766.688" y="1185.2336"/><text fill="#FFFFFF" font-family="Verdana" font-size="12.5" lengthAdjust="spacing" textLength="197.8638" x="782.313" y="1212.4613">V&#233;rifier soudures encastrement</text><rect fill="none" height="473.6979" rx="4.1667" ry="4.1667" style="stroke:#EC7211;stroke-width:1.5625;" width="1001.1292" x="11.4583" y="1391.9067"/><path d="M248.5209,1391.9067 L248.5209,1409.5825 L238.1042,1419.9992 L11.4583,1419.9992" fill="none" style="stroke:#EC7211;stroke-width:1.5625;"/><text fill="#EC7211" font-family="Verdana" font-size="12.5" font-weight="bold" lengthAdjust="spacing" textLength="216.2292" x="19.7917" y="1409.7595">VERIFICATION DEFORMATIONS</text><rect fill="url(#gipn7k7k2j4o91)" height="45.8008" rx="4.1667" ry="4.1667" style="stroke:#EC7211;stroke-width:0.5208;" width="169.1467" x="427.4495" y="1437.7075"/><text fill="#FFFFFF" font-family="Verdana" font-size="12.5" lengthAdjust="spacing" textLength="137.8967" x="443.0745" y="1464.9353">Limitation fl&#232;ches ELS</text><polygon fill="#EEEEEE" points="113.8774,1504.3416,186.6536,1504.3416,199.1536,1516.8416,186.6536,1529.3416,113.8774,1529.3416,101.3774,1516.8416,113.8774,1504.3416" style="stroke:#BEBEBE;stroke-width:0.5208;"/><text fill="#4E5D6C" font-family="Verdana" font-size="12.5" lengthAdjust="spacing" textLength="50.7568" x="159.6405" y="1546.1528">Poteaux</text><text fill="#4E5D6C" font-family="Verdana" font-size="12.5" lengthAdjust="spacing" textLength="62.3596" x="119.0857" y="1521.169">&#201;l&#233;ment ?</text><rect fill="url(#gipn7k7k2j4o91)" height="45.8008" rx="4.1667" ry="4.1667" style="stroke:#EC7211;stroke-width:0.5208;" width="156.0242" x="72.2534" y="1575.1424"/><text fill="#FFFFFF" font-family="Verdana" font-size="12.5" lengthAdjust="spacing" textLength="124.7742" x="87.8784" y="1602.3702">&#948; &#8804; H/300 (g&#233;n&#233;ral)</text><path d="M299.4893,1656.3436 L299.4893,1669.869 L278.656,1674.0356 L299.4893,1678.2023 L299.4893,1691.7277 A0,0 0 0 0 299.4893,1691.7277 L515.0818,1691.7277 A0,0 0 0 0 515.0818,1691.7277 L515.0818,1666.7603 L504.6651,1656.3436 L299.4893,1656.3436 A0,0 0 0 0 299.4893,1656.3436" fill="#0073BB" style="stroke:#005C96;stroke-width:1.0417;"/><path d="M504.6651,1656.3436 L504.6651,1666.7603 L515.0818,1666.7603 L504.6651,1656.3436" fill="#0073BB" style="stroke:#005C96;stroke-width:1.0417;"/><a href="https://www.google.fr" target="_top" title="https://www.google.fr" xlink:actuate="onRequest" xlink:href="https://www.google.fr" xlink:show="new" xlink:title="https://www.google.fr" xlink:type="simple"><text fill="#0000FF" font-family="Verdana" font-size="12.5" lengthAdjust="spacing" text-decoration="underline" textLength="183.3008" x="310.9477" y="1678.363">EN 13031-1:2019 Tableau 10</text></a><rect fill="url(#gipn7k7k2j4o91)" height="45.8008" rx="4.1667" ry="4.1667" style="stroke:#EC7211;stroke-width:0.5208;" width="256.781" x="21.875" y="1651.1353"/><text fill="#FFFFFF" font-family="Verdana" font-size="12.5" lengthAdjust="spacing" textLength="225.531" x="37.5" y="1678.363">&#948; &#8804; H/150 (d&#233;placement horizontal)</text><polygon fill="#EEEEEE" points="601.2177,1504.3416,673.0113,1504.3416,685.5113,1516.8416,673.0113,1529.3416,601.2177,1529.3416,588.7177,1516.8416,601.2177,1504.3416" style="stroke:#BEBEBE;stroke-width:0.5208;"/><text fill="#4E5D6C" font-family="Verdana" font-size="12.5" lengthAdjust="spacing" textLength="19.043" x="646.4895" y="1546.1528">oui</text><text fill="#4E5D6C" font-family="Verdana" font-size="12.5" lengthAdjust="spacing" textLength="61.377" x="606.426" y="1521.169">Traverses</text><text fill="#4E5D6C" font-family="Verdana" font-size="12.5" lengthAdjust="spacing" textLength="45.2454" x="690.7196" y="1508.6853">Pannes</text><rect fill="url(#gipn7k7k2j4o91)" height="45.8008" rx="4.1667" ry="4.1667" style="stroke:#EC7211;stroke-width:0.5208;" width="202.3987" x="535.9151" y="1575.1424"/><text fill="#FFFFFF" font-family="Verdana" font-size="12.5" lengthAdjust="spacing" textLength="171.1487" x="551.5401" y="1602.3702">&#948; &#8804; L/300 (fl&#232;che verticale)</text><rect fill="url(#gipn7k7k2j4o91)" height="45.8008" rx="4.1667" ry="4.1667" style="stroke:#EC7211;stroke-width:0.5208;" width="153.8452" x="560.1919" y="1651.1353"/><text fill="#FFFFFF" font-family="Verdana" font-size="12.5" lengthAdjust="spacing" textLength="122.5952" x="575.8169" y="1678.363">&#948; &#8804; L/250 (console)</text><rect fill="url(#gipn7k7k2j4o91)" height="45.8008" rx="4.1667" ry="4.1667" style="stroke:#EC7211;stroke-width:0.5208;" width="243.0237" x="759.1471" y="1565.7837"/><text fill="#FFFFFF" font-family="Verdana" font-size="12.5" lengthAdjust="spacing" textLength="211.7737" x="774.7721" y="1593.0115">&#948; &#8804; L/200 (charges permanentes)</text><rect fill="url(#gipn7k7k2j4o91)" height="45.8008" rx="4.1667" ry="4.1667" style="stroke:#EC7211;stroke-width:0.5208;" width="216.7236" x="772.2972" y="1641.7765"/><text fill="#FFFFFF" font-family="Verdana" font-size="12.5" lengthAdjust="spacing" textLength="185.4736" x="787.9222" y="1669.0043">&#948; &#8804; L/250 (charges variables)</text><rect fill="url(#gipn7k7k2j4o91)" height="45.8008" rx="4.1667" ry="4.1667" style="stroke:#EC7211;stroke-width:0.5208;" width="230.4688" x="396.7885" y="1738.6027"/><text fill="#FFFFFF" font-family="Verdana" font-size="12.5" lengthAdjust="spacing" textLength="199.2188" x="412.4135" y="1765.8305">V&#233;rification d&#233;placement global</text><path d="M655.6254,1803.1698 L655.6254,1823.9705 L634.7921,1828.1372 L655.6254,1832.3039 L655.6254,1853.1047 A0,0 0 0 0 655.6254,1853.1047 L932.3873,1853.1047 A0,0 0 0 0 932.3873,1853.1047 L932.3873,1813.5864 L921.9706,1803.1698 L655.6254,1803.1698 A0,0 0 0 0 655.6254,1803.1698" fill="#0073BB" style="stroke:#005C96;stroke-width:1.0417;"/><path d="M921.9706,1803.1698 L921.9706,1813.5864 L932.3873,1813.5864 L921.9706,1803.1698" fill="#0073BB" style="stroke:#005C96;stroke-width:1.0417;"/><text fill="#FFFFFF" font-family="Verdana" font-size="12.5" lengthAdjust="spacing" textLength="153.3752" x="667.0837" y="1825.1892">Crit&#232;re confort et aspect</text><text fill="#FFFFFF" font-family="Verdana" font-size="12.5" lengthAdjust="spacing" textLength="244.4702" x="667.0837" y="1839.74">Pr&#233;servation &#233;l&#233;ments non structuraux</text><rect fill="url(#gipn7k7k2j4o91)" height="45.8008" rx="4.1667" ry="4.1667" style="stroke:#EC7211;stroke-width:0.5208;" width="245.5383" x="389.2537" y="1805.2368"/><text fill="#FFFFFF" font-family="Verdana" font-size="12.5" lengthAdjust="spacing" textLength="214.2883" x="404.8787" y="1832.4646">&#948; &#8804; H/150 (d&#233;placement sommet)</text><line style="stroke:#EC7211;stroke-width:3.125;" x1="512.0229" x2="512.0229" y1="114.4694" y2="185.1563"/><polygon fill="#EC7211" points="507.8562,174.7396,512.0229,185.1563,516.1896,174.7396,512.0229,178.9063" style="stroke:#EC7211;stroke-width:1.0417;"/><line style="stroke:#EC7211;stroke-width:3.125;" x1="512.0229" x2="512.0229" y1="393.2454" y2="414.0788"/><polygon fill="#EC7211" points="507.8562,403.6621,512.0229,414.0788,516.1896,403.6621,512.0229,407.8288" style="stroke:#EC7211;stroke-width:1.0417;"/><line style="stroke:#EC7211;stroke-width:3.125;" x1="512.0229" x2="512.0229" y1="230.957" y2="347.4447"/><polygon fill="#EC7211" points="507.8562,337.028,512.0229,347.4447,516.1896,337.028,512.0229,341.1947" style="stroke:#EC7211;stroke-width:1.0417;"/><line style="stroke:#EC7211;stroke-width:3.125;" x1="229.1514" x2="229.1514" y1="714.5813" y2="769.7245"/><polygon fill="#EC7211" points="224.9847,759.3079,229.1514,769.7245,233.3181,759.3079,229.1514,763.4745" style="stroke:#EC7211;stroke-width:1.0417;"/><line style="stroke:#EC7211;stroke-width:3.125;" x1="229.1514" x2="229.1514" y1="620.2311" y2="668.7805"/><polygon fill="#EC7211" points="224.9847,658.3639,229.1514,668.7805,233.3181,658.3639,229.1514,662.5305" style="stroke:#EC7211;stroke-width:1.0417;"/><line style="stroke:#EC7211;stroke-width:3.125;" x1="229.1514" x2="229.1514" y1="815.5253" y2="845.7011"/><polygon fill="#EC7211" points="224.9847,835.2844,229.1514,845.7011,233.3181,835.2844,229.1514,839.4511" style="stroke:#EC7211;stroke-width:1.0417;"/><line style="stroke:#EC7211;stroke-width:3.125;" x1="681.9234" x2="681.9234" y1="620.2311" y2="659.4381"/><polygon fill="#EC7211" points="677.7568,649.0214,681.9234,659.4381,686.0901,649.0214,681.9234,653.1881" style="stroke:#EC7211;stroke-width:1.0417;"/><line style="stroke:#EC7211;stroke-width:3.125;" x1="681.9234" x2="681.9234" y1="705.2389" y2="845.7011"/><polygon fill="#EC7211" points="677.7568,835.2844,681.9234,845.7011,686.0901,835.2844,681.9234,839.4511" style="stroke:#EC7211;stroke-width:1.0417;"/><line style="stroke:#EC7211;stroke-width:3.125;" x1="288.5895" x2="615.9729" y1="607.7311" y2="607.7311"/><polygon fill="#EC7211" points="605.5562,603.5645,615.9729,607.7311,605.5562,611.8978,609.7229,607.7311" style="stroke:#EC7211;stroke-width:1.0417;"/><line style="stroke:#EC7211;stroke-width:3.125;" x1="512.0229" x2="512.0229" y1="574.3978" y2="579.6061"/><line style="stroke:#EC7211;stroke-width:3.125;" x1="512.0229" x2="229.1514" y1="579.6061" y2="579.6061"/><line style="stroke:#EC7211;stroke-width:3.125;" x1="229.1514" x2="229.1514" y1="579.6061" y2="595.2311"/><polygon fill="#EC7211" points="224.9847,584.8145,229.1514,595.2311,233.3181,584.8145,229.1514,588.9811" style="stroke:#EC7211;stroke-width:1.0417;"/><line style="stroke:#EC7211;stroke-width:3.125;" x1="747.8739" x2="825.9766" y1="607.7311" y2="607.7311"/><line style="stroke:#EC7211;stroke-width:3.125;" x1="825.9766" x2="825.9766" y1="607.7311" y2="709.8938"/><polygon fill="#EC7211" points="821.8099,699.4771,825.9766,709.8938,830.1432,699.4771,825.9766,703.6438" style="stroke:#EC7211;stroke-width:1.0417;"/><line style="stroke:#EC7211;stroke-width:3.125;" x1="825.9766" x2="825.9766" y1="755.6946" y2="845.7011"/><polygon fill="#EC7211" points="821.8099,835.2844,825.9766,845.7011,830.1432,835.2844,825.9766,839.4511" style="stroke:#EC7211;stroke-width:1.0417;"/><line style="stroke:#EC7211;stroke-width:3.125;" x1="229.1514" x2="825.9766" y1="845.7011" y2="845.7011"/><line style="stroke:#EC7211;stroke-width:3.125;" x1="512.0229" x2="512.0229" y1="845.7011" y2="872.7356"/><polygon fill="#EC7211" points="507.8562,862.3189,512.0229,872.7356,516.1896,862.3189,512.0229,866.4856" style="stroke:#EC7211;stroke-width:1.0417;"/><line style="stroke:#EC7211;stroke-width:3.125;" x1="512.0229" x2="512.0229" y1="918.5364" y2="955.9875"/><polygon fill="#EC7211" points="507.8562,945.5709,512.0229,955.9875,516.1896,945.5709,512.0229,949.7375" style="stroke:#EC7211;stroke-width:1.0417;"/><line style="stroke:#EC7211;stroke-width:3.125;" x1="131.4911" x2="131.4911" y1="1132.6294" y2="1153.4627"/><polygon fill="#EC7211" points="127.3244,1143.0461,131.4911,1153.4627,135.6578,1143.0461,131.4911,1147.2127" style="stroke:#EC7211;stroke-width:1.0417;"/><line style="stroke:#EC7211;stroke-width:3.125;" x1="131.4911" x2="131.4911" y1="1199.2635" y2="1235.7218"/><polygon fill="#EC7211" points="127.3244,1225.3052,131.4911,1235.7218,135.6578,1225.3052,131.4911,1229.4718" style="stroke:#EC7211;stroke-width:1.0417;"/><line style="stroke:#EC7211;stroke-width:3.125;" x1="131.4911" x2="131.4911" y1="1281.5226" y2="1302.356"/><polygon fill="#EC7211" points="127.3244,1291.9393,131.4911,1302.356,135.6578,1291.9393,131.4911,1296.106" style="stroke:#EC7211;stroke-width:1.0417;"/><line style="stroke:#EC7211;stroke-width:3.125;" x1="131.4911" x2="131.4911" y1="1047.6217" y2="1086.8286"/><polygon fill="#EC7211" points="127.3244,1076.4119,131.4911,1086.8286,135.6578,1076.4119,131.4911,1080.5786" style="stroke:#EC7211;stroke-width:1.0417;"/><line style="stroke:#EC7211;stroke-width:3.125;" x1="131.4911" x2="131.4911" y1="1348.1567" y2="1368.9901"/><polygon fill="#EC7211" points="127.3244,1358.5734,131.4911,1368.9901,135.6578,1358.5734,131.4911,1362.7401" style="stroke:#EC7211;stroke-width:1.0417;"/><line style="stroke:#EC7211;stroke-width:3.125;" x1="487.679" x2="487.679" y1="1047.6217" y2="1086.8286"/><polygon fill="#EC7211" points="483.5124,1076.4119,487.679,1086.8286,491.8457,1076.4119,487.679,1080.5786" style="stroke:#EC7211;stroke-width:1.0417;"/><line style="stroke:#EC7211;stroke-width:3.125;" x1="487.679" x2="487.679" y1="1132.6294" y2="1368.9901"/><polygon fill="#EC7211" points="483.5124,1358.5734,487.679,1368.9901,491.8457,1358.5734,487.679,1362.7401" style="stroke:#EC7211;stroke-width:1.0417;"/><line style="stroke:#EC7211;stroke-width:3.125;" x1="209.4411" x2="450.4059" y1="1035.1217" y2="1035.1217"/><polygon fill="#EC7211" points="439.9892,1030.955,450.4059,1035.1217,439.9892,1039.2883,444.1559,1035.1217" style="stroke:#EC7211;stroke-width:1.0417;"/><line style="stroke:#EC7211;stroke-width:3.125;" x1="512.0229" x2="512.0229" y1="1001.7883" y2="1006.9967"/><line style="stroke:#EC7211;stroke-width:3.125;" x1="512.0229" x2="131.4911" y1="1006.9967" y2="1006.9967"/><line style="stroke:#EC7211;stroke-width:3.125;" x1="131.4911" x2="131.4911" y1="1006.9967" y2="1022.6217"/><polygon fill="#EC7211" points="127.3244,1012.205,131.4911,1022.6217,135.6578,1012.205,131.4911,1016.3717" style="stroke:#EC7211;stroke-width:1.0417;"/><line style="stroke:#EC7211;stroke-width:3.125;" x1="524.9522" x2="881.2449" y1="1035.1217" y2="1035.1217"/><line style="stroke:#EC7211;stroke-width:3.125;" x1="881.2449" x2="881.2449" y1="1035.1217" y2="1185.2336"/><polygon fill="#EC7211" points="877.0782,1174.8169,881.2449,1185.2336,885.4116,1174.8169,881.2449,1178.9836" style="stroke:#EC7211;stroke-width:1.0417;"/><line style="stroke:#EC7211;stroke-width:3.125;" x1="881.2449" x2="881.2449" y1="1231.0343" y2="1368.9901"/><polygon fill="#EC7211" points="877.0782,1358.5734,881.2449,1368.9901,885.4116,1358.5734,881.2449,1362.7401" style="stroke:#EC7211;stroke-width:1.0417;"/><line style="stroke:#EC7211;stroke-width:3.125;" x1="131.4911" x2="881.2449" y1="1368.9901" y2="1368.9901"/><line style="stroke:#EC7211;stroke-width:3.125;" x1="512.0229" x2="512.0229" y1="459.8796" y2="528.597"/><polygon fill="#EC7211" points="507.8562,518.1803,512.0229,528.597,516.1896,518.1803,512.0229,522.347" style="stroke:#EC7211;stroke-width:1.0417;"/><line style="stroke:#EC7211;stroke-width:3.125;" x1="150.2655" x2="150.2655" y1="1620.9432" y2="1651.1353"/><polygon fill="#EC7211" points="146.0988,1640.7186,150.2655,1651.1353,154.4322,1640.7186,150.2655,1644.8853" style="stroke:#EC7211;stroke-width:1.0417;"/><line style="stroke:#EC7211;stroke-width:3.125;" x1="637.1145" x2="637.1145" y1="1620.9432" y2="1651.1353"/><polygon fill="#EC7211" points="632.9478,1640.7186,637.1145,1651.1353,641.2811,1640.7186,637.1145,1644.8853" style="stroke:#EC7211;stroke-width:1.0417;"/><line style="stroke:#EC7211;stroke-width:3.125;" x1="880.659" x2="880.659" y1="1611.5845" y2="1641.7765"/><polygon fill="#EC7211" points="876.4923,1631.3599,880.659,1641.7765,884.8256,1631.3599,880.659,1635.5265" style="stroke:#EC7211;stroke-width:1.0417;"/><line style="stroke:#EC7211;stroke-width:3.125;" x1="150.2655" x2="150.2655" y1="1529.3416" y2="1575.1424"/><polygon fill="#EC7211" points="146.0988,1564.7257,150.2655,1575.1424,154.4322,1564.7257,150.2655,1568.8924" style="stroke:#EC7211;stroke-width:1.0417;"/><line style="stroke:#EC7211;stroke-width:3.125;" x1="150.2655" x2="150.2655" y1="1696.936" y2="1717.7694"/><polygon fill="#EC7211" points="146.0988,1707.3527,150.2655,1717.7694,154.4322,1707.3527,150.2655,1711.5194" style="stroke:#EC7211;stroke-width:1.0417;"/><line style="stroke:#EC7211;stroke-width:3.125;" x1="637.1145" x2="637.1145" y1="1529.3416" y2="1575.1424"/><polygon fill="#EC7211" points="632.9478,1564.7257,637.1145,1575.1424,641.2811,1564.7257,637.1145,1568.8924" style="stroke:#EC7211;stroke-width:1.0417;"/><line style="stroke:#EC7211;stroke-width:3.125;" x1="637.1145" x2="637.1145" y1="1696.936" y2="1717.7694"/><polygon fill="#EC7211" points="632.9478,1707.3527,637.1145,1717.7694,641.2811,1707.3527,637.1145,1711.5194" style="stroke:#EC7211;stroke-width:1.0417;"/><line style="stroke:#EC7211;stroke-width:3.125;" x1="199.1536" x2="588.7177" y1="1516.8416" y2="1516.8416"/><polygon fill="#EC7211" points="578.301,1512.675,588.7177,1516.8416,578.301,1521.0083,582.4677,1516.8416" style="stroke:#EC7211;stroke-width:1.0417;"/><line style="stroke:#EC7211;stroke-width:3.125;" x1="512.0229" x2="512.0229" y1="1483.5083" y2="1488.7166"/><line style="stroke:#EC7211;stroke-width:3.125;" x1="512.0229" x2="150.2655" y1="1488.7166" y2="1488.7166"/><line style="stroke:#EC7211;stroke-width:3.125;" x1="150.2655" x2="150.2655" y1="1488.7166" y2="1504.3416"/><polygon fill="#EC7211" points="146.0988,1493.925,150.2655,1504.3416,154.4322,1493.925,150.2655,1498.0916" style="stroke:#EC7211;stroke-width:1.0417;"/><line style="stroke:#EC7211;stroke-width:3.125;" x1="685.5113" x2="880.659" y1="1516.8416" y2="1516.8416"/><line style="stroke:#EC7211;stroke-width:3.125;" x1="880.659" x2="880.659" y1="1516.8416" y2="1565.7837"/><polygon fill="#EC7211" points="876.4923,1555.367,880.659,1565.7837,884.8256,1555.367,880.659,1559.5337" style="stroke:#EC7211;stroke-width:1.0417;"/><line style="stroke:#EC7211;stroke-width:3.125;" x1="880.659" x2="880.659" y1="1687.5773" y2="1717.7694"/><polygon fill="#EC7211" points="876.4923,1707.3527,880.659,1717.7694,884.8256,1707.3527,880.659,1711.5194" style="stroke:#EC7211;stroke-width:1.0417;"/><line style="stroke:#EC7211;stroke-width:3.125;" x1="150.2655" x2="880.659" y1="1717.7694" y2="1717.7694"/><line style="stroke:#EC7211;stroke-width:3.125;" x1="512.0229" x2="512.0229" y1="1717.7694" y2="1738.6027"/><polygon fill="#EC7211" points="507.8562,1728.186,512.0229,1738.6027,516.1896,1728.186,512.0229,1732.3527" style="stroke:#EC7211;stroke-width:1.0417;"/><line style="stroke:#EC7211;stroke-width:3.125;" x1="512.0229" x2="512.0229" y1="1784.4035" y2="1805.2368"/><polygon fill="#EC7211" points="507.8562,1794.8201,512.0229,1805.2368,516.1896,1794.8201,512.0229,1798.9868" style="stroke:#EC7211;stroke-width:1.0417;"/><line style="stroke:#EC7211;stroke-width:3.125;" x1="512.0229" x2="512.0229" y1="1368.9901" y2="1437.7075"/><polygon fill="#EC7211" points="507.8562,1427.2909,512.0229,1437.7075,516.1896,1427.2909,512.0229,1431.4575" style="stroke:#EC7211;stroke-width:1.0417;"/><!--SRC=[jLRBRXit5DthAsvJe97KMc-xjUoeaFL81LXZrr9T144Mr0n78a8D9oJ7TbCKoAx85nJT5KKBHFl-mUpRV_2Nz9BpqCinq4MrqM3kvUNXkUUUuITwGPSKoAqw4984SreeQAOvBG2SAlQMjkj7dTDPfyldGZAzm5IFGfyjQQ2O209S6sYu55ApDn65CtPmGwKYWJwjpZgdLLEXioxLwWmSg3ThpVf1lTserO-Xw78IAGhrMcalkz4fziHonWB2b0WKUFVlVYMkPkQPX25dBfbnYi_H7IWg9LLv3Hfua1oZe3IHkb1ezn5jlC9qxob2blXuKWY4fY3PVA5nrtAvcnOFgLoI0BEeQfVB9eGdP1u6f0WbXUUlw_PbbkzXLHRWHfoJvCtprut2LiaR8fb5cnNCrqRs171ZUFnsjx09nhy19n1GDgUOq7XezHsu4TSHCe0PpOqCB8kTSGcdu8h0JG-EIIsBhiU9KhQZbZ-4PeWph1GA8TB6R8qdc7WnFXivtT7amfb0_sctDntXKxdy17x4Gkr-lF9Pm2Hkij6lmVbt9nYr97Fg6uxDfiuGrYgeEjr6hL4hb-7bouNMeMfNgxUtjvMv47DEAxw4gQ4D2Mh1P_dpuQjNM2p72l0OY4aE8klq_uFYfntEhWTNe-6erpLKmTLWCffCkqvla9Ds7Qyayx4vTa689R2H1YlpeJWH7FNDT1BykWGufW6OUK01AZDwy3dudDxXKyaUAQj79MfHKvbC2ZZLyOcDxp1WE1Z7AxqGsFrwU-letAsuTzN3suclNdmQaZbzTlIbPUluk7c0T45NQZYgD2jDou3vfNzErRdo4DcuEiR_-_T_GBrIix6DPgNP6u1zJfOpQoKVnVhFpn3_0ex-mjRz4vo1PoTfOtDCUORDfpwIoimueTQzAA5XlSE3Q2XNrD0-pMXJR1bocj4k8fQIZDlQOraW9-bAA0wJJcJBajnncZjsizp0OtwgrktkQqcCRrArFp3txtw7iR0sYvrAMvv71hwFtclM1-u2RJSbmuHm7cpD_D3cvRLWFF5iBj0MzgTe6vUnX-MCemHKfipf3o7TUB_Mvfc8kFNOFJrY7nH3UqG3WfdDKacVsmPIZod2U8fgU9DobGOlCxLxZ2nHhj9OsN2sdPHtRQZpm5f2xJrb1wtWnVUpHDcDemrbVsMLtQmSfRhUKCP4H1uURKyGwrEwGdh6SHHceXN_DnYjsXwCrZO8A0u2boWjBL5xkwUxAkpdEcijkaVDgJyONboDkzkUViwMcVtuFFxWBcXkfeQF-3sFLxPbkG0k4mjBeVtzbnN_DzLchGR5URn2PM3tIYSxuVeXXf7Qa1CtqS02RnflHQ3pv8T9t3RetOj5PjBrsdulfzcqxRSpXNMUe4uFllwAxg0_hpOCUloqAf47ytvT4hmVgTt23LCOPrNYJ6tUD3vIEatCxm-bnuraYyWv5pF2pOB7w5PYkQIwzC1NieStllY3j7S7QpDKu-I7r4t2bsQkgRn9TevNgI0Kba4dr1AjDv8eYEsFvBy0]--></g></svg>